%TF.GenerationSoftware,KiCad,Pcbnew,7.0.7*%
%TF.CreationDate,2023-08-30T20:40:50+08:00*%
%TF.ProjectId,_____,0aa5e55c-f02e-46b6-9963-61645f706362,rev?*%
%TF.SameCoordinates,PX65bf5d0PY352fb90*%
%TF.FileFunction,Legend,Top*%
%TF.FilePolarity,Positive*%
%FSLAX46Y46*%
G04 Gerber Fmt 4.6, Leading zero omitted, Abs format (unit mm)*
G04 Created by KiCad (PCBNEW 7.0.7) date 2023-08-30 20:40:50*
%MOMM*%
%LPD*%
G01*
G04 APERTURE LIST*
%ADD10C,0.150000*%
G04 APERTURE END LIST*
D10*
G36*
X59593739Y-7998394D02*
G01*
X58328561Y-7998394D01*
X58328561Y-4410467D01*
X58329868Y-4319839D01*
X58333789Y-4232360D01*
X58340325Y-4148030D01*
X58349474Y-4066848D01*
X58361238Y-3988814D01*
X58375616Y-3913929D01*
X58392608Y-3842192D01*
X58412214Y-3773604D01*
X58434435Y-3708164D01*
X58459269Y-3645872D01*
X58486718Y-3586729D01*
X58516781Y-3530735D01*
X58549458Y-3477889D01*
X58584749Y-3428191D01*
X58622654Y-3381642D01*
X58663174Y-3338241D01*
X58706432Y-3297721D01*
X58752857Y-3259816D01*
X58802449Y-3224525D01*
X58855210Y-3191848D01*
X58911138Y-3161785D01*
X58970233Y-3134336D01*
X59032496Y-3109502D01*
X59097926Y-3087281D01*
X59166524Y-3067675D01*
X59238289Y-3050683D01*
X59313222Y-3036305D01*
X59391323Y-3024541D01*
X59472591Y-3015392D01*
X59557026Y-3008856D01*
X59644629Y-3004935D01*
X59735400Y-3003628D01*
X61352288Y-3003628D01*
X61443063Y-3004935D01*
X61530680Y-3008856D01*
X61615140Y-3015392D01*
X61696441Y-3024541D01*
X61774584Y-3036305D01*
X61849570Y-3050683D01*
X61921397Y-3067675D01*
X61990067Y-3087281D01*
X62055578Y-3109502D01*
X62117932Y-3134336D01*
X62177127Y-3161785D01*
X62233165Y-3191848D01*
X62286044Y-3224525D01*
X62335766Y-3259816D01*
X62382329Y-3297721D01*
X62425735Y-3338241D01*
X62466107Y-3381642D01*
X62503874Y-3428191D01*
X62539036Y-3477889D01*
X62571594Y-3530735D01*
X62601547Y-3586729D01*
X62628895Y-3645872D01*
X62653639Y-3708164D01*
X62675779Y-3773604D01*
X62695313Y-3842192D01*
X62712243Y-3913929D01*
X62726569Y-3988814D01*
X62738289Y-4066848D01*
X62747406Y-4148030D01*
X62753917Y-4232360D01*
X62757824Y-4319839D01*
X62759126Y-4410467D01*
X62759126Y-7998394D01*
X61493948Y-7998394D01*
X61493948Y-4410467D01*
X61492298Y-4359448D01*
X61483633Y-4289091D01*
X61467540Y-4226140D01*
X61444019Y-4170595D01*
X61413072Y-4122456D01*
X61374696Y-4081723D01*
X61328894Y-4048396D01*
X61275664Y-4022475D01*
X61215006Y-4003960D01*
X61146921Y-3992851D01*
X61097404Y-3989559D01*
X61071408Y-3989148D01*
X60016279Y-3989148D01*
X59965112Y-3990794D01*
X59894551Y-3999434D01*
X59831418Y-4015480D01*
X59775712Y-4038933D01*
X59727433Y-4069791D01*
X59686582Y-4108055D01*
X59653159Y-4153726D01*
X59627163Y-4206802D01*
X59608594Y-4267284D01*
X59597453Y-4335173D01*
X59594152Y-4384546D01*
X59593739Y-4410467D01*
X59593739Y-7998394D01*
G37*
G36*
X56036342Y-6662386D02*
G01*
X56036342Y-3074459D01*
X57267326Y-3074459D01*
X57267326Y-5712281D01*
X57794891Y-5712281D01*
X57794891Y-6662386D01*
X56036342Y-6662386D01*
G37*
G36*
X57267326Y-8069225D02*
G01*
X56036342Y-8069225D01*
X56036342Y-7083705D01*
X57267326Y-7083705D01*
X57267326Y-8069225D01*
G37*
G36*
X53271513Y-5852721D02*
G01*
X53342221Y-5851487D01*
X53414667Y-5847784D01*
X53463931Y-5843943D01*
X53513967Y-5839006D01*
X53564776Y-5832972D01*
X53616358Y-5825840D01*
X53668713Y-5817611D01*
X53721840Y-5808285D01*
X53775741Y-5797862D01*
X53830414Y-5786341D01*
X53885860Y-5773724D01*
X53942079Y-5760009D01*
X53999070Y-5745197D01*
X54056835Y-5729288D01*
X54115372Y-5712281D01*
X54115372Y-3074459D01*
X55346356Y-3074459D01*
X55346356Y-6802826D01*
X54255812Y-6802826D01*
X54186202Y-6451116D01*
X54144767Y-6477835D01*
X54103198Y-6503647D01*
X54040594Y-6540666D01*
X53977690Y-6575646D01*
X53914485Y-6608587D01*
X53850979Y-6639488D01*
X53787173Y-6668350D01*
X53723066Y-6695173D01*
X53658659Y-6719956D01*
X53593952Y-6742700D01*
X53528944Y-6763404D01*
X53507207Y-6769853D01*
X53442904Y-6788185D01*
X53380511Y-6804715D01*
X53320029Y-6819441D01*
X53261457Y-6832364D01*
X53204796Y-6843483D01*
X53150045Y-6852800D01*
X53097205Y-6860313D01*
X53046275Y-6866023D01*
X52997256Y-6869930D01*
X52934869Y-6872335D01*
X52919803Y-6872435D01*
X52603509Y-6872435D01*
X52544413Y-6871309D01*
X52486807Y-6867932D01*
X52430688Y-6862303D01*
X52376058Y-6854422D01*
X52322916Y-6844290D01*
X52271262Y-6831906D01*
X52221097Y-6817270D01*
X52172420Y-6800383D01*
X52125232Y-6781244D01*
X52079532Y-6759854D01*
X52035320Y-6736212D01*
X51992596Y-6710319D01*
X51951361Y-6682173D01*
X51911615Y-6651777D01*
X51873356Y-6619128D01*
X51836586Y-6584228D01*
X51801686Y-6547458D01*
X51769038Y-6509200D01*
X51738641Y-6469453D01*
X51710496Y-6428218D01*
X51684602Y-6385495D01*
X51660960Y-6341283D01*
X51639570Y-6295583D01*
X51620431Y-6248394D01*
X51603544Y-6199717D01*
X51588909Y-6149552D01*
X51576525Y-6097899D01*
X51566393Y-6044757D01*
X51558512Y-5990127D01*
X51552883Y-5934008D01*
X51549505Y-5876401D01*
X51548380Y-5817306D01*
X51548380Y-3074459D01*
X52779364Y-3074459D01*
X52779364Y-5607257D01*
X52783791Y-5657556D01*
X52799354Y-5708850D01*
X52826123Y-5754542D01*
X52850194Y-5781890D01*
X52892151Y-5816130D01*
X52939710Y-5839164D01*
X52992872Y-5850992D01*
X53024828Y-5852721D01*
X53271513Y-5852721D01*
G37*
G36*
X48549078Y-3074459D02*
G01*
X51080655Y-3074459D01*
X51080655Y-4058757D01*
X50448066Y-4058757D01*
X50448066Y-7014096D01*
X51080655Y-7014096D01*
X51080655Y-7998394D01*
X48549078Y-7998394D01*
X48549078Y-7014096D01*
X49181667Y-7014096D01*
X49181667Y-4058757D01*
X48549078Y-4058757D01*
X48549078Y-3074459D01*
G37*
G36*
X46759035Y-3004935D02*
G01*
X46846514Y-3008856D01*
X46930845Y-3015392D01*
X47012027Y-3024541D01*
X47090060Y-3036305D01*
X47164946Y-3050683D01*
X47236682Y-3067675D01*
X47305271Y-3087281D01*
X47370711Y-3109502D01*
X47433002Y-3134336D01*
X47492145Y-3161785D01*
X47548140Y-3191848D01*
X47600986Y-3224525D01*
X47650684Y-3259816D01*
X47697233Y-3297721D01*
X47740634Y-3338241D01*
X47781153Y-3381642D01*
X47819059Y-3428191D01*
X47854350Y-3477889D01*
X47887027Y-3530735D01*
X47917090Y-3586729D01*
X47944538Y-3645872D01*
X47969373Y-3708164D01*
X47991593Y-3773604D01*
X48011199Y-3842192D01*
X48028191Y-3913929D01*
X48042569Y-3988814D01*
X48054333Y-4066848D01*
X48063483Y-4148030D01*
X48070018Y-4232360D01*
X48073939Y-4319839D01*
X48075246Y-4410467D01*
X48075246Y-6662386D01*
X48073939Y-6753013D01*
X48070018Y-6840492D01*
X48063483Y-6924823D01*
X48054333Y-7006005D01*
X48042569Y-7084039D01*
X48028191Y-7158924D01*
X48011199Y-7230661D01*
X47991593Y-7299249D01*
X47969373Y-7364689D01*
X47944538Y-7426981D01*
X47917090Y-7486124D01*
X47887027Y-7542118D01*
X47854350Y-7594964D01*
X47819059Y-7644662D01*
X47781153Y-7691211D01*
X47740634Y-7734612D01*
X47697233Y-7775132D01*
X47650684Y-7813037D01*
X47600986Y-7848328D01*
X47548140Y-7881005D01*
X47492145Y-7911068D01*
X47433002Y-7938517D01*
X47370711Y-7963351D01*
X47305271Y-7985572D01*
X47236682Y-8005178D01*
X47164946Y-8022170D01*
X47090060Y-8036548D01*
X47012027Y-8048311D01*
X46930845Y-8057461D01*
X46846514Y-8063996D01*
X46759035Y-8067918D01*
X46668408Y-8069225D01*
X44909859Y-8069225D01*
X44819089Y-8067918D01*
X44731485Y-8063996D01*
X44647050Y-8057461D01*
X44565782Y-8048311D01*
X44487682Y-8036548D01*
X44412749Y-8022170D01*
X44340983Y-8005178D01*
X44272385Y-7985572D01*
X44206955Y-7963351D01*
X44144692Y-7938517D01*
X44085597Y-7911068D01*
X44029669Y-7881005D01*
X43976909Y-7848328D01*
X43927316Y-7813037D01*
X43880891Y-7775132D01*
X43837633Y-7734612D01*
X43797113Y-7691211D01*
X43759208Y-7644662D01*
X43723917Y-7594964D01*
X43691240Y-7542118D01*
X43661177Y-7486124D01*
X43633728Y-7426981D01*
X43608894Y-7364689D01*
X43586673Y-7299249D01*
X43567067Y-7230661D01*
X43550075Y-7158924D01*
X43535697Y-7084039D01*
X43523934Y-7006005D01*
X43514784Y-6924823D01*
X43508249Y-6840492D01*
X43504327Y-6753013D01*
X43503020Y-6662386D01*
X44768198Y-6662386D01*
X44769849Y-6713405D01*
X44778514Y-6783762D01*
X44794607Y-6846713D01*
X44818127Y-6902258D01*
X44849075Y-6950397D01*
X44887450Y-6991130D01*
X44933253Y-7024457D01*
X44986483Y-7050378D01*
X45047141Y-7068893D01*
X45115226Y-7080002D01*
X45164742Y-7083293D01*
X45190738Y-7083705D01*
X46386307Y-7083705D01*
X46437474Y-7082059D01*
X46508035Y-7073419D01*
X46571168Y-7057372D01*
X46626874Y-7033920D01*
X46675153Y-7003062D01*
X46716004Y-6964797D01*
X46749428Y-6919127D01*
X46775424Y-6866051D01*
X46793992Y-6805569D01*
X46805134Y-6737680D01*
X46808435Y-6688307D01*
X46808847Y-6662386D01*
X46808847Y-4410467D01*
X46807197Y-4359448D01*
X46798531Y-4289091D01*
X46782438Y-4226140D01*
X46758918Y-4170595D01*
X46727970Y-4122456D01*
X46689595Y-4081723D01*
X46643793Y-4048396D01*
X46590562Y-4022475D01*
X46529905Y-4003960D01*
X46461820Y-3992851D01*
X46412303Y-3989559D01*
X46386307Y-3989148D01*
X45190738Y-3989148D01*
X45139571Y-3990794D01*
X45069011Y-3999434D01*
X45005877Y-4015480D01*
X44950171Y-4038933D01*
X44901893Y-4069791D01*
X44861042Y-4108055D01*
X44827618Y-4153726D01*
X44801622Y-4206802D01*
X44783053Y-4267284D01*
X44771912Y-4335173D01*
X44768611Y-4384546D01*
X44768198Y-4410467D01*
X44768198Y-6662386D01*
X43503020Y-6662386D01*
X43503020Y-4410467D01*
X43504327Y-4319839D01*
X43508249Y-4232360D01*
X43514784Y-4148030D01*
X43523934Y-4066848D01*
X43535697Y-3988814D01*
X43550075Y-3913929D01*
X43567067Y-3842192D01*
X43586673Y-3773604D01*
X43608894Y-3708164D01*
X43633728Y-3645872D01*
X43661177Y-3586729D01*
X43691240Y-3530735D01*
X43723917Y-3477889D01*
X43759208Y-3428191D01*
X43797113Y-3381642D01*
X43837633Y-3338241D01*
X43880891Y-3297721D01*
X43927316Y-3259816D01*
X43976909Y-3224525D01*
X44029669Y-3191848D01*
X44085597Y-3161785D01*
X44144692Y-3134336D01*
X44206955Y-3109502D01*
X44272385Y-3087281D01*
X44340983Y-3067675D01*
X44412749Y-3050683D01*
X44487682Y-3036305D01*
X44565782Y-3024541D01*
X44647050Y-3015392D01*
X44731485Y-3008856D01*
X44819089Y-3004935D01*
X44909859Y-3003628D01*
X46668408Y-3003628D01*
X46759035Y-3004935D01*
G37*
G36*
X43035295Y-4129588D02*
G01*
X41768896Y-4129588D01*
X41768896Y-3074459D01*
X43035295Y-3074459D01*
X43035295Y-4129588D01*
G37*
G36*
X37908638Y-3145289D02*
G01*
X37990539Y-3136573D01*
X38071837Y-3128135D01*
X38152531Y-3119973D01*
X38232622Y-3112087D01*
X38312110Y-3104478D01*
X38390994Y-3097146D01*
X38469274Y-3090091D01*
X38546951Y-3083312D01*
X38624025Y-3076810D01*
X38700495Y-3070585D01*
X38776362Y-3064636D01*
X38851625Y-3058964D01*
X38926285Y-3053569D01*
X39000341Y-3048450D01*
X39073794Y-3043609D01*
X39146644Y-3039043D01*
X39218890Y-3034755D01*
X39290532Y-3030743D01*
X39361572Y-3027008D01*
X39432007Y-3023549D01*
X39501839Y-3020367D01*
X39571068Y-3017462D01*
X39639694Y-3014834D01*
X39707715Y-3012482D01*
X39775134Y-3010407D01*
X39841949Y-3008608D01*
X39908160Y-3007087D01*
X39973768Y-3005842D01*
X40038773Y-3004873D01*
X40103174Y-3004181D01*
X40166972Y-3003766D01*
X40230166Y-3003628D01*
X40289118Y-3004754D01*
X40346601Y-3008131D01*
X40402615Y-3013760D01*
X40457159Y-3021641D01*
X40510234Y-3031773D01*
X40561840Y-3044157D01*
X40611977Y-3058793D01*
X40660644Y-3075680D01*
X40707842Y-3094818D01*
X40753571Y-3116209D01*
X40797830Y-3139851D01*
X40840621Y-3165744D01*
X40881942Y-3193889D01*
X40921793Y-3224286D01*
X40960176Y-3256935D01*
X40997089Y-3291835D01*
X41031989Y-3328748D01*
X41064637Y-3367130D01*
X41095034Y-3406982D01*
X41123179Y-3448303D01*
X41149073Y-3491093D01*
X41172715Y-3535352D01*
X41194105Y-3581081D01*
X41213244Y-3628279D01*
X41230131Y-3676946D01*
X41244766Y-3727083D01*
X41257150Y-3778689D01*
X41267282Y-3831764D01*
X41275163Y-3886308D01*
X41280792Y-3942322D01*
X41284169Y-3999805D01*
X41285295Y-4058757D01*
X41285295Y-5676866D01*
X41284127Y-5741920D01*
X41280620Y-5805189D01*
X41274777Y-5866674D01*
X41266595Y-5926375D01*
X41256077Y-5984292D01*
X41243221Y-6040425D01*
X41228027Y-6094774D01*
X41210496Y-6147339D01*
X41190627Y-6198119D01*
X41168421Y-6247116D01*
X41143878Y-6294328D01*
X41116997Y-6339756D01*
X41087778Y-6383400D01*
X41056222Y-6425260D01*
X41022329Y-6465336D01*
X40986098Y-6503628D01*
X40947806Y-6539859D01*
X40907730Y-6573752D01*
X40865870Y-6605308D01*
X40822226Y-6634527D01*
X40776798Y-6661408D01*
X40729586Y-6685952D01*
X40680589Y-6708158D01*
X40629809Y-6728026D01*
X40577244Y-6745557D01*
X40522895Y-6760751D01*
X40466762Y-6773607D01*
X40408845Y-6784126D01*
X40349144Y-6792307D01*
X40287659Y-6798151D01*
X40224389Y-6801657D01*
X40159336Y-6802826D01*
X37908638Y-6802826D01*
X37908638Y-5852721D01*
X39772211Y-5852721D01*
X39822625Y-5850252D01*
X39882131Y-5839280D01*
X39932821Y-5819531D01*
X39974695Y-5791004D01*
X40007754Y-5753700D01*
X40031997Y-5707618D01*
X40047424Y-5652759D01*
X40054036Y-5589122D01*
X40054311Y-5571842D01*
X40054311Y-4200418D01*
X40049884Y-4149509D01*
X40034321Y-4097527D01*
X40007552Y-4051148D01*
X39983481Y-4023342D01*
X39940934Y-3989693D01*
X39892977Y-3967056D01*
X39839611Y-3955432D01*
X39807626Y-3953733D01*
X39726077Y-3954143D01*
X39639575Y-3955374D01*
X39548123Y-3957425D01*
X39451718Y-3960297D01*
X39401659Y-3962040D01*
X39350362Y-3963989D01*
X39297828Y-3966143D01*
X39244055Y-3968502D01*
X39189044Y-3971066D01*
X39132795Y-3973835D01*
X39075309Y-3976809D01*
X39016585Y-3979989D01*
X38956622Y-3983373D01*
X38895422Y-3986963D01*
X38832984Y-3990758D01*
X38769308Y-3994758D01*
X38704394Y-3998963D01*
X38638242Y-4003373D01*
X38570852Y-4007989D01*
X38502224Y-4012809D01*
X38432359Y-4017835D01*
X38361255Y-4023065D01*
X38288914Y-4028501D01*
X38215334Y-4034142D01*
X38140517Y-4039988D01*
X38064462Y-4046039D01*
X37987169Y-4052296D01*
X37908638Y-4058757D01*
X37908638Y-3145289D01*
G37*
G36*
X36375122Y-3004797D02*
G01*
X36438391Y-3008303D01*
X36499877Y-3014147D01*
X36559578Y-3022328D01*
X36617495Y-3032847D01*
X36673628Y-3045703D01*
X36727977Y-3060896D01*
X36780541Y-3078427D01*
X36831322Y-3098296D01*
X36880318Y-3120502D01*
X36927531Y-3145046D01*
X36972959Y-3171927D01*
X37016603Y-3201145D01*
X37058463Y-3232701D01*
X37098539Y-3266595D01*
X37136830Y-3302826D01*
X37173061Y-3341117D01*
X37206955Y-3381193D01*
X37238511Y-3423053D01*
X37267729Y-3466697D01*
X37294610Y-3512125D01*
X37319154Y-3559338D01*
X37341360Y-3608334D01*
X37361229Y-3659115D01*
X37378760Y-3711680D01*
X37393953Y-3766028D01*
X37406809Y-3822161D01*
X37417328Y-3880078D01*
X37425509Y-3939779D01*
X37431353Y-4001265D01*
X37434859Y-4064534D01*
X37436028Y-4129588D01*
X37436028Y-5747696D01*
X37434859Y-5812745D01*
X37431353Y-5876000D01*
X37425509Y-5937462D01*
X37417328Y-5997129D01*
X37406809Y-6055004D01*
X37393953Y-6111084D01*
X37378760Y-6165371D01*
X37361229Y-6217864D01*
X37341360Y-6268563D01*
X37319154Y-6317469D01*
X37294610Y-6364581D01*
X37267729Y-6409900D01*
X37238511Y-6453425D01*
X37206955Y-6495156D01*
X37173061Y-6535093D01*
X37136830Y-6573237D01*
X37098539Y-6609468D01*
X37058463Y-6643362D01*
X37016603Y-6674918D01*
X36972959Y-6704136D01*
X36927531Y-6731017D01*
X36880318Y-6755561D01*
X36831322Y-6777767D01*
X36780541Y-6797635D01*
X36727977Y-6815167D01*
X36673628Y-6830360D01*
X36617495Y-6843216D01*
X36559578Y-6853735D01*
X36499877Y-6861916D01*
X36438391Y-6867760D01*
X36375122Y-6871266D01*
X36310068Y-6872435D01*
X34691960Y-6872435D01*
X34626911Y-6871266D01*
X34563656Y-6867760D01*
X34502194Y-6861916D01*
X34442527Y-6853735D01*
X34384652Y-6843216D01*
X34328572Y-6830360D01*
X34274285Y-6815167D01*
X34221792Y-6797635D01*
X34171093Y-6777767D01*
X34122187Y-6755561D01*
X34075075Y-6731017D01*
X34029756Y-6704136D01*
X33986231Y-6674918D01*
X33944500Y-6643362D01*
X33904563Y-6609468D01*
X33866419Y-6573237D01*
X33830188Y-6535093D01*
X33796294Y-6495156D01*
X33764738Y-6453425D01*
X33735520Y-6409900D01*
X33708639Y-6364581D01*
X33684095Y-6317469D01*
X33661889Y-6268563D01*
X33642021Y-6217864D01*
X33624490Y-6165371D01*
X33609296Y-6111084D01*
X33596440Y-6055004D01*
X33585921Y-5997129D01*
X33577740Y-5937462D01*
X33571896Y-5876000D01*
X33568390Y-5812745D01*
X33567221Y-5747696D01*
X33567221Y-5641451D01*
X34798205Y-5641451D01*
X34800674Y-5691865D01*
X34811646Y-5751371D01*
X34831395Y-5802061D01*
X34859922Y-5843935D01*
X34897226Y-5876994D01*
X34943308Y-5901237D01*
X34998167Y-5916664D01*
X35061804Y-5923276D01*
X35079085Y-5923551D01*
X35922944Y-5923551D01*
X35973358Y-5921072D01*
X36032864Y-5910052D01*
X36083553Y-5890217D01*
X36125428Y-5861566D01*
X36158486Y-5824100D01*
X36182729Y-5777818D01*
X36198157Y-5722720D01*
X36204769Y-5658807D01*
X36205044Y-5641451D01*
X36205044Y-4234612D01*
X36202565Y-4184416D01*
X36191545Y-4125168D01*
X36171710Y-4074697D01*
X36143059Y-4033004D01*
X36105593Y-4000089D01*
X36059310Y-3975951D01*
X36004213Y-3960590D01*
X35940299Y-3954007D01*
X35922944Y-3953733D01*
X35079085Y-3953733D01*
X35028888Y-3956201D01*
X34969640Y-3967173D01*
X34919170Y-3986923D01*
X34877477Y-4015449D01*
X34844561Y-4052754D01*
X34820423Y-4098835D01*
X34805063Y-4153695D01*
X34798480Y-4217331D01*
X34798205Y-4234612D01*
X34798205Y-5641451D01*
X33567221Y-5641451D01*
X33567221Y-4129588D01*
X33568390Y-4064534D01*
X33571896Y-4001265D01*
X33577740Y-3939779D01*
X33585921Y-3880078D01*
X33596440Y-3822161D01*
X33609296Y-3766028D01*
X33624490Y-3711680D01*
X33642021Y-3659115D01*
X33661889Y-3608334D01*
X33684095Y-3559338D01*
X33708639Y-3512125D01*
X33735520Y-3466697D01*
X33764738Y-3423053D01*
X33796294Y-3381193D01*
X33830188Y-3341117D01*
X33866419Y-3302826D01*
X33904563Y-3266595D01*
X33944500Y-3232701D01*
X33986231Y-3201145D01*
X34029756Y-3171927D01*
X34075075Y-3145046D01*
X34122187Y-3120502D01*
X34171093Y-3098296D01*
X34221792Y-3078427D01*
X34274285Y-3060896D01*
X34328572Y-3045703D01*
X34384652Y-3032847D01*
X34442527Y-3022328D01*
X34502194Y-3014147D01*
X34563656Y-3008303D01*
X34626911Y-3004797D01*
X34691960Y-3003628D01*
X36310068Y-3003628D01*
X36375122Y-3004797D01*
G37*
G36*
X30461673Y-6872435D02*
G01*
X30391549Y-6870789D01*
X30323447Y-6865852D01*
X30257368Y-6857623D01*
X30193312Y-6846102D01*
X30131278Y-6831290D01*
X30071267Y-6813187D01*
X30013278Y-6791792D01*
X29957312Y-6767105D01*
X29903369Y-6739127D01*
X29851448Y-6707857D01*
X29801550Y-6673296D01*
X29753675Y-6635443D01*
X29707822Y-6594298D01*
X29663992Y-6549862D01*
X29622184Y-6502135D01*
X29582399Y-6451116D01*
X29521259Y-6490854D01*
X29459195Y-6528553D01*
X29396208Y-6564213D01*
X29332298Y-6597833D01*
X29267465Y-6629414D01*
X29201710Y-6658956D01*
X29135031Y-6686458D01*
X29067428Y-6711921D01*
X28998903Y-6735345D01*
X28929455Y-6756729D01*
X28882643Y-6769853D01*
X28812827Y-6788185D01*
X28744427Y-6804715D01*
X28677444Y-6819441D01*
X28611877Y-6832364D01*
X28547728Y-6843483D01*
X28484995Y-6852800D01*
X28423679Y-6860313D01*
X28363780Y-6866023D01*
X28305298Y-6869930D01*
X28248232Y-6872034D01*
X28210976Y-6872435D01*
X28140145Y-6872435D01*
X28081198Y-6871309D01*
X28023729Y-6867932D01*
X27967739Y-6862303D01*
X27913228Y-6854422D01*
X27860196Y-6844290D01*
X27808643Y-6831906D01*
X27758568Y-6817270D01*
X27709973Y-6800383D01*
X27662856Y-6781244D01*
X27617217Y-6759854D01*
X27573058Y-6736212D01*
X27530378Y-6710319D01*
X27489176Y-6682173D01*
X27449453Y-6651777D01*
X27411209Y-6619128D01*
X27374444Y-6584228D01*
X27339396Y-6547458D01*
X27306609Y-6509200D01*
X27276084Y-6469453D01*
X27247819Y-6428218D01*
X27221816Y-6385495D01*
X27198074Y-6341283D01*
X27176593Y-6295583D01*
X27157373Y-6248394D01*
X27140414Y-6199717D01*
X27125717Y-6149552D01*
X27113281Y-6097899D01*
X27103105Y-6044757D01*
X27095191Y-5990127D01*
X27089538Y-5934008D01*
X27086147Y-5876401D01*
X27085016Y-5817306D01*
X27085016Y-3074459D01*
X28316000Y-3074459D01*
X28316000Y-5607257D01*
X28320427Y-5657556D01*
X28335990Y-5708850D01*
X28362759Y-5754542D01*
X28386830Y-5781890D01*
X28429377Y-5816130D01*
X28477334Y-5839164D01*
X28530700Y-5850992D01*
X28562685Y-5852721D01*
X28598101Y-5852721D01*
X28658951Y-5851487D01*
X28722893Y-5847784D01*
X28789927Y-5841612D01*
X28860051Y-5832972D01*
X28908518Y-5825840D01*
X28958359Y-5817611D01*
X29009573Y-5808285D01*
X29062162Y-5797862D01*
X29116124Y-5786341D01*
X29171461Y-5773724D01*
X29228171Y-5760009D01*
X29286255Y-5745197D01*
X29345713Y-5729288D01*
X29406544Y-5712281D01*
X29406544Y-3074459D01*
X30637528Y-3074459D01*
X30637528Y-5607257D01*
X30641955Y-5657556D01*
X30657519Y-5708850D01*
X30684287Y-5754542D01*
X30708359Y-5781890D01*
X30750412Y-5816130D01*
X30798261Y-5839164D01*
X30851906Y-5850992D01*
X30884214Y-5852721D01*
X30919629Y-5852721D01*
X30980480Y-5851487D01*
X31044422Y-5847784D01*
X31111455Y-5841612D01*
X31181579Y-5832972D01*
X31230046Y-5825840D01*
X31279887Y-5817611D01*
X31331102Y-5808285D01*
X31383690Y-5797862D01*
X31437653Y-5786341D01*
X31492989Y-5773724D01*
X31549699Y-5760009D01*
X31607783Y-5745197D01*
X31667241Y-5729288D01*
X31728073Y-5712281D01*
X31728073Y-3074459D01*
X32959057Y-3074459D01*
X32959057Y-6802826D01*
X31868512Y-6802826D01*
X31798903Y-6451116D01*
X31757468Y-6477835D01*
X31715899Y-6503647D01*
X31653295Y-6540666D01*
X31590390Y-6575646D01*
X31527185Y-6608587D01*
X31463680Y-6639488D01*
X31399874Y-6668350D01*
X31335767Y-6695173D01*
X31271360Y-6719956D01*
X31206652Y-6742700D01*
X31141644Y-6763404D01*
X31119908Y-6769853D01*
X31055605Y-6788185D01*
X30993212Y-6804715D01*
X30932729Y-6819441D01*
X30874158Y-6832364D01*
X30817496Y-6843483D01*
X30762746Y-6852800D01*
X30709906Y-6860313D01*
X30658976Y-6866023D01*
X30609957Y-6869930D01*
X30547570Y-6872335D01*
X30532504Y-6872435D01*
X30461673Y-6872435D01*
G37*
G36*
X2998394Y-35426259D02*
G01*
X2998394Y-36691437D01*
X-589533Y-36691437D01*
X-680161Y-36690130D01*
X-767640Y-36686209D01*
X-851970Y-36679673D01*
X-933152Y-36670524D01*
X-1011186Y-36658760D01*
X-1086071Y-36644382D01*
X-1157808Y-36627390D01*
X-1226396Y-36607784D01*
X-1291836Y-36585563D01*
X-1354128Y-36560729D01*
X-1413271Y-36533280D01*
X-1469265Y-36503217D01*
X-1522111Y-36470540D01*
X-1571809Y-36435249D01*
X-1618358Y-36397344D01*
X-1661759Y-36356824D01*
X-1702279Y-36313566D01*
X-1740184Y-36267141D01*
X-1775475Y-36217549D01*
X-1808152Y-36164788D01*
X-1838215Y-36108860D01*
X-1865664Y-36049765D01*
X-1890498Y-35987502D01*
X-1912719Y-35922072D01*
X-1932325Y-35853474D01*
X-1949317Y-35781709D01*
X-1963695Y-35706776D01*
X-1975459Y-35628675D01*
X-1984608Y-35547407D01*
X-1991144Y-35462972D01*
X-1995065Y-35375369D01*
X-1996372Y-35284598D01*
X-1996372Y-33667710D01*
X-1995065Y-33576935D01*
X-1991144Y-33489318D01*
X-1984608Y-33404858D01*
X-1975459Y-33323557D01*
X-1963695Y-33245414D01*
X-1949317Y-33170428D01*
X-1932325Y-33098601D01*
X-1912719Y-33029931D01*
X-1890498Y-32964420D01*
X-1865664Y-32902066D01*
X-1838215Y-32842871D01*
X-1808152Y-32786833D01*
X-1775475Y-32733954D01*
X-1740184Y-32684232D01*
X-1702279Y-32637669D01*
X-1661759Y-32594263D01*
X-1618358Y-32553891D01*
X-1571809Y-32516124D01*
X-1522111Y-32480962D01*
X-1469265Y-32448404D01*
X-1413271Y-32418451D01*
X-1354128Y-32391103D01*
X-1291836Y-32366359D01*
X-1226396Y-32344219D01*
X-1157808Y-32324685D01*
X-1086071Y-32307755D01*
X-1011186Y-32293429D01*
X-933152Y-32281709D01*
X-851970Y-32272592D01*
X-767640Y-32266081D01*
X-680161Y-32262174D01*
X-589533Y-32260872D01*
X2998394Y-32260872D01*
X2998394Y-33526050D01*
X-589533Y-33526050D01*
X-640552Y-33527700D01*
X-710909Y-33536365D01*
X-773860Y-33552458D01*
X-829405Y-33575979D01*
X-877544Y-33606926D01*
X-918277Y-33645302D01*
X-951604Y-33691104D01*
X-977525Y-33744334D01*
X-996040Y-33804992D01*
X-1007149Y-33873077D01*
X-1010441Y-33922594D01*
X-1010852Y-33948590D01*
X-1010852Y-35003719D01*
X-1009206Y-35054886D01*
X-1000566Y-35125447D01*
X-984520Y-35188580D01*
X-961067Y-35244286D01*
X-930209Y-35292565D01*
X-891945Y-35333416D01*
X-846274Y-35366839D01*
X-793198Y-35392835D01*
X-732716Y-35411404D01*
X-664827Y-35422545D01*
X-615454Y-35425846D01*
X-589533Y-35426259D01*
X2998394Y-35426259D01*
G37*
G36*
X1662386Y-38983656D02*
G01*
X-1925541Y-38983656D01*
X-1925541Y-37752672D01*
X712281Y-37752672D01*
X712281Y-37225107D01*
X1662386Y-37225107D01*
X1662386Y-38983656D01*
G37*
G36*
X3069225Y-37752672D02*
G01*
X3069225Y-38983656D01*
X2083705Y-38983656D01*
X2083705Y-37752672D01*
X3069225Y-37752672D01*
G37*
G36*
X852721Y-41748485D02*
G01*
X851487Y-41677777D01*
X847784Y-41605331D01*
X843943Y-41556067D01*
X839006Y-41506031D01*
X832972Y-41455222D01*
X825840Y-41403640D01*
X817611Y-41351285D01*
X808285Y-41298158D01*
X797862Y-41244257D01*
X786341Y-41189584D01*
X773724Y-41134138D01*
X760009Y-41077919D01*
X745197Y-41020928D01*
X729288Y-40963163D01*
X712281Y-40904626D01*
X-1925541Y-40904626D01*
X-1925541Y-39673642D01*
X1802826Y-39673642D01*
X1802826Y-40764186D01*
X1451116Y-40833796D01*
X1477835Y-40875231D01*
X1503647Y-40916800D01*
X1540666Y-40979404D01*
X1575646Y-41042308D01*
X1608587Y-41105513D01*
X1639488Y-41169019D01*
X1668350Y-41232825D01*
X1695173Y-41296932D01*
X1719956Y-41361339D01*
X1742700Y-41426046D01*
X1763404Y-41491054D01*
X1769853Y-41512791D01*
X1788185Y-41577094D01*
X1804715Y-41639487D01*
X1819441Y-41699969D01*
X1832364Y-41758541D01*
X1843483Y-41815202D01*
X1852800Y-41869953D01*
X1860313Y-41922793D01*
X1866023Y-41973723D01*
X1869930Y-42022742D01*
X1872335Y-42085129D01*
X1872435Y-42100195D01*
X1872435Y-42416489D01*
X1871309Y-42475585D01*
X1867932Y-42533191D01*
X1862303Y-42589310D01*
X1854422Y-42643940D01*
X1844290Y-42697082D01*
X1831906Y-42748736D01*
X1817270Y-42798901D01*
X1800383Y-42847578D01*
X1781244Y-42894766D01*
X1759854Y-42940466D01*
X1736212Y-42984678D01*
X1710319Y-43027402D01*
X1682173Y-43068637D01*
X1651777Y-43108383D01*
X1619128Y-43146642D01*
X1584228Y-43183412D01*
X1547458Y-43218312D01*
X1509200Y-43250960D01*
X1469453Y-43281357D01*
X1428218Y-43309502D01*
X1385495Y-43335396D01*
X1341283Y-43359038D01*
X1295583Y-43380428D01*
X1248394Y-43399567D01*
X1199717Y-43416454D01*
X1149552Y-43431089D01*
X1097899Y-43443473D01*
X1044757Y-43453605D01*
X990127Y-43461486D01*
X934008Y-43467115D01*
X876401Y-43470493D01*
X817306Y-43471618D01*
X-1925541Y-43471618D01*
X-1925541Y-42240634D01*
X607257Y-42240634D01*
X657556Y-42236207D01*
X708850Y-42220644D01*
X754542Y-42193875D01*
X781890Y-42169804D01*
X816130Y-42127847D01*
X839164Y-42080288D01*
X850992Y-42027126D01*
X852721Y-41995170D01*
X852721Y-41748485D01*
G37*
G36*
X-1925541Y-46470920D02*
G01*
X-1925541Y-43939343D01*
X-941243Y-43939343D01*
X-941243Y-44571932D01*
X2014096Y-44571932D01*
X2014096Y-43939343D01*
X2998394Y-43939343D01*
X2998394Y-46470920D01*
X2014096Y-46470920D01*
X2014096Y-45838332D01*
X-941243Y-45838332D01*
X-941243Y-46470920D01*
X-1925541Y-46470920D01*
G37*
G36*
X1753013Y-46946059D02*
G01*
X1840492Y-46949980D01*
X1924823Y-46956515D01*
X2006005Y-46965665D01*
X2084039Y-46977429D01*
X2158924Y-46991807D01*
X2230661Y-47008799D01*
X2299249Y-47028405D01*
X2364689Y-47050625D01*
X2426981Y-47075460D01*
X2486124Y-47102908D01*
X2542118Y-47132971D01*
X2594964Y-47165648D01*
X2644662Y-47200939D01*
X2691211Y-47238845D01*
X2734612Y-47279364D01*
X2775132Y-47322765D01*
X2813037Y-47369314D01*
X2848328Y-47419012D01*
X2881005Y-47471858D01*
X2911068Y-47527853D01*
X2938517Y-47586996D01*
X2963351Y-47649287D01*
X2985572Y-47714727D01*
X3005178Y-47783316D01*
X3022170Y-47855052D01*
X3036548Y-47929938D01*
X3048311Y-48007971D01*
X3057461Y-48089153D01*
X3063996Y-48173484D01*
X3067918Y-48260963D01*
X3069225Y-48351590D01*
X3069225Y-50110139D01*
X3067918Y-50200909D01*
X3063996Y-50288513D01*
X3057461Y-50372948D01*
X3048311Y-50454216D01*
X3036548Y-50532316D01*
X3022170Y-50607249D01*
X3005178Y-50679015D01*
X2985572Y-50747613D01*
X2963351Y-50813043D01*
X2938517Y-50875306D01*
X2911068Y-50934401D01*
X2881005Y-50990329D01*
X2848328Y-51043089D01*
X2813037Y-51092682D01*
X2775132Y-51139107D01*
X2734612Y-51182365D01*
X2691211Y-51222885D01*
X2644662Y-51260790D01*
X2594964Y-51296081D01*
X2542118Y-51328758D01*
X2486124Y-51358821D01*
X2426981Y-51386270D01*
X2364689Y-51411104D01*
X2299249Y-51433325D01*
X2230661Y-51452931D01*
X2158924Y-51469923D01*
X2084039Y-51484301D01*
X2006005Y-51496064D01*
X1924823Y-51505214D01*
X1840492Y-51511749D01*
X1753013Y-51515671D01*
X1662386Y-51516978D01*
X-589533Y-51516978D01*
X-680161Y-51515671D01*
X-767640Y-51511749D01*
X-851970Y-51505214D01*
X-933152Y-51496064D01*
X-1011186Y-51484301D01*
X-1086071Y-51469923D01*
X-1157808Y-51452931D01*
X-1226396Y-51433325D01*
X-1291836Y-51411104D01*
X-1354128Y-51386270D01*
X-1413271Y-51358821D01*
X-1469265Y-51328758D01*
X-1522111Y-51296081D01*
X-1571809Y-51260790D01*
X-1618358Y-51222885D01*
X-1661759Y-51182365D01*
X-1702279Y-51139107D01*
X-1740184Y-51092682D01*
X-1775475Y-51043089D01*
X-1808152Y-50990329D01*
X-1838215Y-50934401D01*
X-1865664Y-50875306D01*
X-1890498Y-50813043D01*
X-1912719Y-50747613D01*
X-1932325Y-50679015D01*
X-1949317Y-50607249D01*
X-1963695Y-50532316D01*
X-1975459Y-50454216D01*
X-1984608Y-50372948D01*
X-1991144Y-50288513D01*
X-1995065Y-50200909D01*
X-1996372Y-50110139D01*
X-1996372Y-49829260D01*
X-1010852Y-49829260D01*
X-1009206Y-49880427D01*
X-1000566Y-49950987D01*
X-984520Y-50014121D01*
X-961067Y-50069827D01*
X-930209Y-50118105D01*
X-891945Y-50158956D01*
X-846274Y-50192380D01*
X-793198Y-50218376D01*
X-732716Y-50236945D01*
X-664827Y-50248086D01*
X-615454Y-50251387D01*
X-589533Y-50251800D01*
X1662386Y-50251800D01*
X1713405Y-50250149D01*
X1783762Y-50241484D01*
X1846713Y-50225391D01*
X1902258Y-50201871D01*
X1950397Y-50170923D01*
X1991130Y-50132548D01*
X2024457Y-50086745D01*
X2050378Y-50033515D01*
X2068893Y-49972857D01*
X2080002Y-49904772D01*
X2083293Y-49855256D01*
X2083705Y-49829260D01*
X2083705Y-48633691D01*
X2082059Y-48582524D01*
X2073419Y-48511963D01*
X2057372Y-48448830D01*
X2033920Y-48393124D01*
X2003062Y-48344845D01*
X1964797Y-48303994D01*
X1919127Y-48270570D01*
X1866051Y-48244574D01*
X1805569Y-48226006D01*
X1737680Y-48214864D01*
X1688307Y-48211563D01*
X1662386Y-48211151D01*
X-589533Y-48211151D01*
X-640552Y-48212801D01*
X-710909Y-48221467D01*
X-773860Y-48237560D01*
X-829405Y-48261080D01*
X-877544Y-48292028D01*
X-918277Y-48330403D01*
X-951604Y-48376205D01*
X-977525Y-48429436D01*
X-996040Y-48490093D01*
X-1007149Y-48558178D01*
X-1010441Y-48607695D01*
X-1010852Y-48633691D01*
X-1010852Y-49829260D01*
X-1996372Y-49829260D01*
X-1996372Y-48351590D01*
X-1995065Y-48260963D01*
X-1991144Y-48173484D01*
X-1984608Y-48089153D01*
X-1975459Y-48007971D01*
X-1963695Y-47929938D01*
X-1949317Y-47855052D01*
X-1932325Y-47783316D01*
X-1912719Y-47714727D01*
X-1890498Y-47649287D01*
X-1865664Y-47586996D01*
X-1838215Y-47527853D01*
X-1808152Y-47471858D01*
X-1775475Y-47419012D01*
X-1740184Y-47369314D01*
X-1702279Y-47322765D01*
X-1661759Y-47279364D01*
X-1618358Y-47238845D01*
X-1571809Y-47200939D01*
X-1522111Y-47165648D01*
X-1469265Y-47132971D01*
X-1413271Y-47102908D01*
X-1354128Y-47075460D01*
X-1291836Y-47050625D01*
X-1226396Y-47028405D01*
X-1157808Y-47008799D01*
X-1086071Y-46991807D01*
X-1011186Y-46977429D01*
X-933152Y-46965665D01*
X-851970Y-46956515D01*
X-767640Y-46949980D01*
X-680161Y-46946059D01*
X-589533Y-46944752D01*
X1662386Y-46944752D01*
X1753013Y-46946059D01*
G37*
G36*
X-870412Y-51984703D02*
G01*
X-870412Y-53251102D01*
X-1925541Y-53251102D01*
X-1925541Y-51984703D01*
X-870412Y-51984703D01*
G37*
G36*
X-1854711Y-57111360D02*
G01*
X-1863427Y-57029459D01*
X-1871865Y-56948161D01*
X-1880027Y-56867467D01*
X-1887913Y-56787376D01*
X-1895522Y-56707888D01*
X-1902854Y-56629004D01*
X-1909909Y-56550724D01*
X-1916688Y-56473047D01*
X-1923190Y-56395973D01*
X-1929415Y-56319503D01*
X-1935364Y-56243636D01*
X-1941036Y-56168373D01*
X-1946431Y-56093713D01*
X-1951550Y-56019657D01*
X-1956391Y-55946204D01*
X-1960957Y-55873354D01*
X-1965245Y-55801108D01*
X-1969257Y-55729466D01*
X-1972992Y-55658426D01*
X-1976451Y-55587991D01*
X-1979633Y-55518159D01*
X-1982538Y-55448930D01*
X-1985166Y-55380304D01*
X-1987518Y-55312283D01*
X-1989593Y-55244864D01*
X-1991392Y-55178049D01*
X-1992913Y-55111838D01*
X-1994158Y-55046230D01*
X-1995127Y-54981225D01*
X-1995819Y-54916824D01*
X-1996234Y-54853026D01*
X-1996372Y-54789832D01*
X-1995246Y-54730880D01*
X-1991869Y-54673397D01*
X-1986240Y-54617383D01*
X-1978359Y-54562839D01*
X-1968227Y-54509764D01*
X-1955843Y-54458158D01*
X-1941207Y-54408021D01*
X-1924320Y-54359354D01*
X-1905182Y-54312156D01*
X-1883791Y-54266427D01*
X-1860149Y-54222168D01*
X-1834256Y-54179377D01*
X-1806111Y-54138056D01*
X-1775714Y-54098205D01*
X-1743065Y-54059822D01*
X-1708165Y-54022909D01*
X-1671252Y-53988009D01*
X-1632870Y-53955361D01*
X-1593018Y-53924964D01*
X-1551697Y-53896819D01*
X-1508907Y-53870925D01*
X-1464648Y-53847283D01*
X-1418919Y-53825893D01*
X-1371721Y-53806754D01*
X-1323054Y-53789867D01*
X-1272917Y-53775232D01*
X-1221311Y-53762848D01*
X-1168236Y-53752716D01*
X-1113692Y-53744835D01*
X-1057678Y-53739206D01*
X-1000195Y-53735829D01*
X-941243Y-53734703D01*
X676866Y-53734703D01*
X741920Y-53735871D01*
X805189Y-53739378D01*
X866674Y-53745221D01*
X926375Y-53753403D01*
X984292Y-53763921D01*
X1040425Y-53776777D01*
X1094774Y-53791971D01*
X1147339Y-53809502D01*
X1198119Y-53829371D01*
X1247116Y-53851577D01*
X1294328Y-53876120D01*
X1339756Y-53903001D01*
X1383400Y-53932220D01*
X1425260Y-53963776D01*
X1465336Y-53997669D01*
X1503628Y-54033900D01*
X1539859Y-54072192D01*
X1573752Y-54112268D01*
X1605308Y-54154128D01*
X1634527Y-54197772D01*
X1661408Y-54243200D01*
X1685952Y-54290412D01*
X1708158Y-54339409D01*
X1728026Y-54390189D01*
X1745557Y-54442754D01*
X1760751Y-54497103D01*
X1773607Y-54553236D01*
X1784126Y-54611153D01*
X1792307Y-54670854D01*
X1798151Y-54732339D01*
X1801657Y-54795609D01*
X1802826Y-54860662D01*
X1802826Y-57111360D01*
X852721Y-57111360D01*
X852721Y-55247787D01*
X850252Y-55197373D01*
X839280Y-55137867D01*
X819531Y-55087177D01*
X791004Y-55045303D01*
X753700Y-55012244D01*
X707618Y-54988001D01*
X652759Y-54972574D01*
X589122Y-54965962D01*
X571842Y-54965687D01*
X-799582Y-54965687D01*
X-850491Y-54970114D01*
X-902473Y-54985677D01*
X-948852Y-55012446D01*
X-976658Y-55036517D01*
X-1010307Y-55079064D01*
X-1032944Y-55127021D01*
X-1044568Y-55180387D01*
X-1046267Y-55212372D01*
X-1045857Y-55293921D01*
X-1044626Y-55380423D01*
X-1042575Y-55471875D01*
X-1039703Y-55568280D01*
X-1037960Y-55618339D01*
X-1036011Y-55669636D01*
X-1033857Y-55722170D01*
X-1031498Y-55775943D01*
X-1028934Y-55830954D01*
X-1026165Y-55887203D01*
X-1023191Y-55944689D01*
X-1020011Y-56003413D01*
X-1016627Y-56063376D01*
X-1013037Y-56124576D01*
X-1009242Y-56187014D01*
X-1005242Y-56250690D01*
X-1001037Y-56315604D01*
X-996627Y-56381756D01*
X-992011Y-56449146D01*
X-987191Y-56517774D01*
X-982165Y-56587639D01*
X-976935Y-56658743D01*
X-971499Y-56731084D01*
X-965858Y-56804664D01*
X-960012Y-56879481D01*
X-953961Y-56955536D01*
X-947704Y-57032829D01*
X-941243Y-57111360D01*
X-1854711Y-57111360D01*
G37*
G36*
X812745Y-57585139D02*
G01*
X876000Y-57588645D01*
X937462Y-57594489D01*
X997129Y-57602670D01*
X1055004Y-57613189D01*
X1111084Y-57626045D01*
X1165371Y-57641238D01*
X1217864Y-57658769D01*
X1268563Y-57678638D01*
X1317469Y-57700844D01*
X1364581Y-57725388D01*
X1409900Y-57752269D01*
X1453425Y-57781487D01*
X1495156Y-57813043D01*
X1535093Y-57846937D01*
X1573237Y-57883168D01*
X1609468Y-57921459D01*
X1643362Y-57961535D01*
X1674918Y-58003395D01*
X1704136Y-58047039D01*
X1731017Y-58092467D01*
X1755561Y-58139680D01*
X1777767Y-58188676D01*
X1797635Y-58239457D01*
X1815167Y-58292021D01*
X1830360Y-58346370D01*
X1843216Y-58402503D01*
X1853735Y-58460420D01*
X1861916Y-58520121D01*
X1867760Y-58581607D01*
X1871266Y-58644876D01*
X1872435Y-58709930D01*
X1872435Y-60328038D01*
X1871266Y-60393087D01*
X1867760Y-60456342D01*
X1861916Y-60517804D01*
X1853735Y-60577471D01*
X1843216Y-60635346D01*
X1830360Y-60691426D01*
X1815167Y-60745713D01*
X1797635Y-60798206D01*
X1777767Y-60848905D01*
X1755561Y-60897811D01*
X1731017Y-60944923D01*
X1704136Y-60990242D01*
X1674918Y-61033767D01*
X1643362Y-61075498D01*
X1609468Y-61115435D01*
X1573237Y-61153579D01*
X1535093Y-61189810D01*
X1495156Y-61223704D01*
X1453425Y-61255260D01*
X1409900Y-61284478D01*
X1364581Y-61311359D01*
X1317469Y-61335903D01*
X1268563Y-61358109D01*
X1217864Y-61377977D01*
X1165371Y-61395508D01*
X1111084Y-61410702D01*
X1055004Y-61423558D01*
X997129Y-61434077D01*
X937462Y-61442258D01*
X876000Y-61448102D01*
X812745Y-61451608D01*
X747696Y-61452777D01*
X-870412Y-61452777D01*
X-935466Y-61451608D01*
X-998735Y-61448102D01*
X-1060221Y-61442258D01*
X-1119922Y-61434077D01*
X-1177839Y-61423558D01*
X-1233972Y-61410702D01*
X-1288320Y-61395508D01*
X-1340885Y-61377977D01*
X-1391666Y-61358109D01*
X-1440662Y-61335903D01*
X-1487875Y-61311359D01*
X-1533303Y-61284478D01*
X-1576947Y-61255260D01*
X-1618807Y-61223704D01*
X-1658883Y-61189810D01*
X-1697174Y-61153579D01*
X-1733405Y-61115435D01*
X-1767299Y-61075498D01*
X-1798855Y-61033767D01*
X-1828073Y-60990242D01*
X-1854954Y-60944923D01*
X-1879498Y-60897811D01*
X-1901704Y-60848905D01*
X-1921573Y-60798206D01*
X-1939104Y-60745713D01*
X-1954297Y-60691426D01*
X-1967153Y-60635346D01*
X-1977672Y-60577471D01*
X-1985853Y-60517804D01*
X-1991697Y-60456342D01*
X-1995203Y-60393087D01*
X-1996372Y-60328038D01*
X-1996372Y-59940913D01*
X-1046267Y-59940913D01*
X-1043799Y-59991110D01*
X-1032827Y-60050358D01*
X-1013077Y-60100828D01*
X-984551Y-60142521D01*
X-947246Y-60175437D01*
X-901165Y-60199575D01*
X-846305Y-60214935D01*
X-782669Y-60221518D01*
X-765388Y-60221793D01*
X641451Y-60221793D01*
X691865Y-60219324D01*
X751371Y-60208352D01*
X802061Y-60188603D01*
X843935Y-60160076D01*
X876994Y-60122772D01*
X901237Y-60076690D01*
X916664Y-60021831D01*
X923276Y-59958194D01*
X923551Y-59940913D01*
X923551Y-59097054D01*
X921072Y-59046640D01*
X910052Y-58987134D01*
X890217Y-58936445D01*
X861566Y-58894570D01*
X824100Y-58861512D01*
X777818Y-58837269D01*
X722720Y-58821841D01*
X658807Y-58815229D01*
X641451Y-58814954D01*
X-765388Y-58814954D01*
X-815584Y-58817433D01*
X-874832Y-58828453D01*
X-925303Y-58848288D01*
X-966996Y-58876939D01*
X-999911Y-58914405D01*
X-1024049Y-58960688D01*
X-1039410Y-59015785D01*
X-1045993Y-59079699D01*
X-1046267Y-59097054D01*
X-1046267Y-59940913D01*
X-1996372Y-59940913D01*
X-1996372Y-58709930D01*
X-1995203Y-58644876D01*
X-1991697Y-58581607D01*
X-1985853Y-58520121D01*
X-1977672Y-58460420D01*
X-1967153Y-58402503D01*
X-1954297Y-58346370D01*
X-1939104Y-58292021D01*
X-1921573Y-58239457D01*
X-1901704Y-58188676D01*
X-1879498Y-58139680D01*
X-1854954Y-58092467D01*
X-1828073Y-58047039D01*
X-1798855Y-58003395D01*
X-1767299Y-57961535D01*
X-1733405Y-57921459D01*
X-1697174Y-57883168D01*
X-1658883Y-57846937D01*
X-1618807Y-57813043D01*
X-1576947Y-57781487D01*
X-1533303Y-57752269D01*
X-1487875Y-57725388D01*
X-1440662Y-57700844D01*
X-1391666Y-57678638D01*
X-1340885Y-57658769D01*
X-1288320Y-57641238D01*
X-1233972Y-57626045D01*
X-1177839Y-57613189D01*
X-1119922Y-57602670D01*
X-1060221Y-57594489D01*
X-998735Y-57588645D01*
X-935466Y-57585139D01*
X-870412Y-57583970D01*
X747696Y-57583970D01*
X812745Y-57585139D01*
G37*
G36*
X1872435Y-64558325D02*
G01*
X1870789Y-64628449D01*
X1865852Y-64696551D01*
X1857623Y-64762630D01*
X1846102Y-64826686D01*
X1831290Y-64888720D01*
X1813187Y-64948731D01*
X1791792Y-65006720D01*
X1767105Y-65062686D01*
X1739127Y-65116629D01*
X1707857Y-65168550D01*
X1673296Y-65218448D01*
X1635443Y-65266323D01*
X1594298Y-65312176D01*
X1549862Y-65356006D01*
X1502135Y-65397814D01*
X1451116Y-65437599D01*
X1490854Y-65498739D01*
X1528553Y-65560803D01*
X1564213Y-65623790D01*
X1597833Y-65687700D01*
X1629414Y-65752533D01*
X1658956Y-65818288D01*
X1686458Y-65884967D01*
X1711921Y-65952570D01*
X1735345Y-66021095D01*
X1756729Y-66090543D01*
X1769853Y-66137355D01*
X1788185Y-66207171D01*
X1804715Y-66275571D01*
X1819441Y-66342554D01*
X1832364Y-66408121D01*
X1843483Y-66472270D01*
X1852800Y-66535003D01*
X1860313Y-66596319D01*
X1866023Y-66656218D01*
X1869930Y-66714700D01*
X1872034Y-66771766D01*
X1872435Y-66809022D01*
X1872435Y-66879853D01*
X1871309Y-66938800D01*
X1867932Y-66996269D01*
X1862303Y-67052259D01*
X1854422Y-67106770D01*
X1844290Y-67159802D01*
X1831906Y-67211355D01*
X1817270Y-67261430D01*
X1800383Y-67310025D01*
X1781244Y-67357142D01*
X1759854Y-67402781D01*
X1736212Y-67446940D01*
X1710319Y-67489620D01*
X1682173Y-67530822D01*
X1651777Y-67570545D01*
X1619128Y-67608789D01*
X1584228Y-67645554D01*
X1547458Y-67680602D01*
X1509200Y-67713389D01*
X1469453Y-67743914D01*
X1428218Y-67772179D01*
X1385495Y-67798182D01*
X1341283Y-67821924D01*
X1295583Y-67843405D01*
X1248394Y-67862625D01*
X1199717Y-67879584D01*
X1149552Y-67894281D01*
X1097899Y-67906717D01*
X1044757Y-67916893D01*
X990127Y-67924807D01*
X934008Y-67930460D01*
X876401Y-67933851D01*
X817306Y-67934982D01*
X-1925541Y-67934982D01*
X-1925541Y-66703998D01*
X607257Y-66703998D01*
X657556Y-66699571D01*
X708850Y-66684008D01*
X754542Y-66657239D01*
X781890Y-66633168D01*
X816130Y-66590621D01*
X839164Y-66542664D01*
X850992Y-66489298D01*
X852721Y-66457313D01*
X852721Y-66421897D01*
X851487Y-66361047D01*
X847784Y-66297105D01*
X841612Y-66230071D01*
X832972Y-66159947D01*
X825840Y-66111480D01*
X817611Y-66061639D01*
X808285Y-66010425D01*
X797862Y-65957836D01*
X786341Y-65903874D01*
X773724Y-65848537D01*
X760009Y-65791827D01*
X745197Y-65733743D01*
X729288Y-65674285D01*
X712281Y-65613454D01*
X-1925541Y-65613454D01*
X-1925541Y-64382470D01*
X607257Y-64382470D01*
X657556Y-64378043D01*
X708850Y-64362479D01*
X754542Y-64335711D01*
X781890Y-64311639D01*
X816130Y-64269586D01*
X839164Y-64221737D01*
X850992Y-64168092D01*
X852721Y-64135784D01*
X852721Y-64100369D01*
X851487Y-64039518D01*
X847784Y-63975576D01*
X841612Y-63908543D01*
X832972Y-63838419D01*
X825840Y-63789952D01*
X817611Y-63740111D01*
X808285Y-63688896D01*
X797862Y-63636308D01*
X786341Y-63582345D01*
X773724Y-63527009D01*
X760009Y-63470299D01*
X745197Y-63412215D01*
X729288Y-63352757D01*
X712281Y-63291925D01*
X-1925541Y-63291925D01*
X-1925541Y-62060941D01*
X1802826Y-62060941D01*
X1802826Y-63151486D01*
X1451116Y-63221095D01*
X1477835Y-63262530D01*
X1503647Y-63304099D01*
X1540666Y-63366703D01*
X1575646Y-63429608D01*
X1608587Y-63492813D01*
X1639488Y-63556318D01*
X1668350Y-63620124D01*
X1695173Y-63684231D01*
X1719956Y-63748638D01*
X1742700Y-63813346D01*
X1763404Y-63878354D01*
X1769853Y-63900090D01*
X1788185Y-63964393D01*
X1804715Y-64026786D01*
X1819441Y-64087269D01*
X1832364Y-64145840D01*
X1843483Y-64202502D01*
X1852800Y-64257252D01*
X1860313Y-64310092D01*
X1866023Y-64361022D01*
X1869930Y-64410041D01*
X1872335Y-64472428D01*
X1872435Y-64487494D01*
X1872435Y-64558325D01*
G37*
G36*
X87021605Y-64593739D02*
G01*
X87021605Y-63328561D01*
X90609532Y-63328561D01*
X90700160Y-63329868D01*
X90787639Y-63333789D01*
X90871969Y-63340325D01*
X90953151Y-63349474D01*
X91031185Y-63361238D01*
X91106070Y-63375616D01*
X91177807Y-63392608D01*
X91246395Y-63412214D01*
X91311835Y-63434435D01*
X91374127Y-63459269D01*
X91433270Y-63486718D01*
X91489264Y-63516781D01*
X91542110Y-63549458D01*
X91591808Y-63584749D01*
X91638357Y-63622654D01*
X91681758Y-63663174D01*
X91722278Y-63706432D01*
X91760183Y-63752857D01*
X91795474Y-63802449D01*
X91828151Y-63855210D01*
X91858214Y-63911138D01*
X91885663Y-63970233D01*
X91910497Y-64032496D01*
X91932718Y-64097926D01*
X91952324Y-64166524D01*
X91969316Y-64238289D01*
X91983694Y-64313222D01*
X91995458Y-64391323D01*
X92004607Y-64472591D01*
X92011143Y-64557026D01*
X92015064Y-64644629D01*
X92016371Y-64735400D01*
X92016371Y-66352288D01*
X92015064Y-66443063D01*
X92011143Y-66530680D01*
X92004607Y-66615140D01*
X91995458Y-66696441D01*
X91983694Y-66774584D01*
X91969316Y-66849570D01*
X91952324Y-66921397D01*
X91932718Y-66990067D01*
X91910497Y-67055578D01*
X91885663Y-67117932D01*
X91858214Y-67177127D01*
X91828151Y-67233165D01*
X91795474Y-67286044D01*
X91760183Y-67335766D01*
X91722278Y-67382329D01*
X91681758Y-67425735D01*
X91638357Y-67466107D01*
X91591808Y-67503874D01*
X91542110Y-67539036D01*
X91489264Y-67571594D01*
X91433270Y-67601547D01*
X91374127Y-67628895D01*
X91311835Y-67653639D01*
X91246395Y-67675779D01*
X91177807Y-67695313D01*
X91106070Y-67712243D01*
X91031185Y-67726569D01*
X90953151Y-67738289D01*
X90871969Y-67747406D01*
X90787639Y-67753917D01*
X90700160Y-67757824D01*
X90609532Y-67759126D01*
X87021605Y-67759126D01*
X87021605Y-66493948D01*
X90609532Y-66493948D01*
X90660551Y-66492298D01*
X90730908Y-66483633D01*
X90793859Y-66467540D01*
X90849404Y-66444019D01*
X90897543Y-66413072D01*
X90938276Y-66374696D01*
X90971603Y-66328894D01*
X90997524Y-66275664D01*
X91016039Y-66215006D01*
X91027148Y-66146921D01*
X91030440Y-66097404D01*
X91030851Y-66071408D01*
X91030851Y-65016279D01*
X91029205Y-64965112D01*
X91020565Y-64894551D01*
X91004519Y-64831418D01*
X90981066Y-64775712D01*
X90950208Y-64727433D01*
X90911944Y-64686582D01*
X90866273Y-64653159D01*
X90813197Y-64627163D01*
X90752715Y-64608594D01*
X90684826Y-64597453D01*
X90635453Y-64594152D01*
X90609532Y-64593739D01*
X87021605Y-64593739D01*
G37*
G36*
X88357613Y-61036342D02*
G01*
X91945541Y-61036342D01*
X91945541Y-62267326D01*
X89307718Y-62267326D01*
X89307718Y-62794891D01*
X88357613Y-62794891D01*
X88357613Y-61036342D01*
G37*
G36*
X86950774Y-62267326D02*
G01*
X86950774Y-61036342D01*
X87936294Y-61036342D01*
X87936294Y-62267326D01*
X86950774Y-62267326D01*
G37*
G36*
X89167278Y-58271513D02*
G01*
X89168512Y-58342221D01*
X89172215Y-58414667D01*
X89176056Y-58463931D01*
X89180993Y-58513967D01*
X89187027Y-58564776D01*
X89194159Y-58616358D01*
X89202388Y-58668713D01*
X89211714Y-58721840D01*
X89222137Y-58775741D01*
X89233658Y-58830414D01*
X89246275Y-58885860D01*
X89259990Y-58942079D01*
X89274802Y-58999070D01*
X89290711Y-59056835D01*
X89307718Y-59115372D01*
X91945541Y-59115372D01*
X91945541Y-60346356D01*
X88217173Y-60346356D01*
X88217173Y-59255812D01*
X88568883Y-59186202D01*
X88542164Y-59144767D01*
X88516352Y-59103198D01*
X88479333Y-59040594D01*
X88444353Y-58977690D01*
X88411412Y-58914485D01*
X88380511Y-58850979D01*
X88351649Y-58787173D01*
X88324826Y-58723066D01*
X88300043Y-58658659D01*
X88277299Y-58593952D01*
X88256595Y-58528944D01*
X88250146Y-58507207D01*
X88231814Y-58442904D01*
X88215284Y-58380511D01*
X88200558Y-58320029D01*
X88187635Y-58261457D01*
X88176516Y-58204796D01*
X88167199Y-58150045D01*
X88159686Y-58097205D01*
X88153976Y-58046275D01*
X88150069Y-57997256D01*
X88147664Y-57934869D01*
X88147564Y-57919803D01*
X88147564Y-57603509D01*
X88148690Y-57544413D01*
X88152067Y-57486807D01*
X88157696Y-57430688D01*
X88165577Y-57376058D01*
X88175709Y-57322916D01*
X88188093Y-57271262D01*
X88202729Y-57221097D01*
X88219616Y-57172420D01*
X88238755Y-57125232D01*
X88260145Y-57079532D01*
X88283787Y-57035320D01*
X88309680Y-56992596D01*
X88337826Y-56951361D01*
X88368222Y-56911615D01*
X88400871Y-56873356D01*
X88435771Y-56836586D01*
X88472541Y-56801686D01*
X88510799Y-56769038D01*
X88550546Y-56738641D01*
X88591781Y-56710496D01*
X88634504Y-56684602D01*
X88678716Y-56660960D01*
X88724416Y-56639570D01*
X88771605Y-56620431D01*
X88820282Y-56603544D01*
X88870447Y-56588909D01*
X88922100Y-56576525D01*
X88975242Y-56566393D01*
X89029872Y-56558512D01*
X89085991Y-56552883D01*
X89143598Y-56549505D01*
X89202693Y-56548380D01*
X91945541Y-56548380D01*
X91945541Y-57779364D01*
X89412742Y-57779364D01*
X89362443Y-57783791D01*
X89311149Y-57799354D01*
X89265457Y-57826123D01*
X89238109Y-57850194D01*
X89203869Y-57892151D01*
X89180835Y-57939710D01*
X89169007Y-57992872D01*
X89167278Y-58024828D01*
X89167278Y-58271513D01*
G37*
G36*
X91945541Y-53549078D02*
G01*
X91945541Y-56080655D01*
X90961242Y-56080655D01*
X90961242Y-55448066D01*
X88005903Y-55448066D01*
X88005903Y-56080655D01*
X87021605Y-56080655D01*
X87021605Y-53549078D01*
X88005903Y-53549078D01*
X88005903Y-54181667D01*
X90961242Y-54181667D01*
X90961242Y-53549078D01*
X91945541Y-53549078D01*
G37*
G36*
X90700160Y-48504327D02*
G01*
X90787639Y-48508249D01*
X90871969Y-48514784D01*
X90953151Y-48523934D01*
X91031185Y-48535697D01*
X91106070Y-48550075D01*
X91177807Y-48567067D01*
X91246395Y-48586673D01*
X91311835Y-48608894D01*
X91374127Y-48633728D01*
X91433270Y-48661177D01*
X91489264Y-48691240D01*
X91542110Y-48723917D01*
X91591808Y-48759208D01*
X91638357Y-48797113D01*
X91681758Y-48837633D01*
X91722278Y-48880891D01*
X91760183Y-48927316D01*
X91795474Y-48976909D01*
X91828151Y-49029669D01*
X91858214Y-49085597D01*
X91885663Y-49144692D01*
X91910497Y-49206955D01*
X91932718Y-49272385D01*
X91952324Y-49340983D01*
X91969316Y-49412749D01*
X91983694Y-49487682D01*
X91995458Y-49565782D01*
X92004607Y-49647050D01*
X92011143Y-49731485D01*
X92015064Y-49819089D01*
X92016371Y-49909859D01*
X92016371Y-51668408D01*
X92015064Y-51759035D01*
X92011143Y-51846514D01*
X92004607Y-51930845D01*
X91995458Y-52012027D01*
X91983694Y-52090060D01*
X91969316Y-52164946D01*
X91952324Y-52236682D01*
X91932718Y-52305271D01*
X91910497Y-52370711D01*
X91885663Y-52433002D01*
X91858214Y-52492145D01*
X91828151Y-52548140D01*
X91795474Y-52600986D01*
X91760183Y-52650684D01*
X91722278Y-52697233D01*
X91681758Y-52740634D01*
X91638357Y-52781153D01*
X91591808Y-52819059D01*
X91542110Y-52854350D01*
X91489264Y-52887027D01*
X91433270Y-52917090D01*
X91374127Y-52944538D01*
X91311835Y-52969373D01*
X91246395Y-52991593D01*
X91177807Y-53011199D01*
X91106070Y-53028191D01*
X91031185Y-53042569D01*
X90953151Y-53054333D01*
X90871969Y-53063483D01*
X90787639Y-53070018D01*
X90700160Y-53073939D01*
X90609532Y-53075246D01*
X88357613Y-53075246D01*
X88266986Y-53073939D01*
X88179507Y-53070018D01*
X88095176Y-53063483D01*
X88013994Y-53054333D01*
X87935960Y-53042569D01*
X87861075Y-53028191D01*
X87789338Y-53011199D01*
X87720750Y-52991593D01*
X87655310Y-52969373D01*
X87593018Y-52944538D01*
X87533875Y-52917090D01*
X87477881Y-52887027D01*
X87425035Y-52854350D01*
X87375337Y-52819059D01*
X87328788Y-52781153D01*
X87285387Y-52740634D01*
X87244867Y-52697233D01*
X87206962Y-52650684D01*
X87171671Y-52600986D01*
X87138994Y-52548140D01*
X87108931Y-52492145D01*
X87081482Y-52433002D01*
X87056648Y-52370711D01*
X87034427Y-52305271D01*
X87014821Y-52236682D01*
X86997829Y-52164946D01*
X86983451Y-52090060D01*
X86971688Y-52012027D01*
X86962538Y-51930845D01*
X86956003Y-51846514D01*
X86952081Y-51759035D01*
X86950774Y-51668408D01*
X86950774Y-51386307D01*
X87936294Y-51386307D01*
X87937940Y-51437474D01*
X87946580Y-51508035D01*
X87962627Y-51571168D01*
X87986079Y-51626874D01*
X88016937Y-51675153D01*
X88055202Y-51716004D01*
X88100872Y-51749428D01*
X88153948Y-51775424D01*
X88214430Y-51793992D01*
X88282319Y-51805134D01*
X88331692Y-51808435D01*
X88357613Y-51808847D01*
X90609532Y-51808847D01*
X90660551Y-51807197D01*
X90730908Y-51798531D01*
X90793859Y-51782438D01*
X90849404Y-51758918D01*
X90897543Y-51727970D01*
X90938276Y-51689595D01*
X90971603Y-51643793D01*
X90997524Y-51590562D01*
X91016039Y-51529905D01*
X91027148Y-51461820D01*
X91030440Y-51412303D01*
X91030851Y-51386307D01*
X91030851Y-50190738D01*
X91029205Y-50139571D01*
X91020565Y-50069011D01*
X91004519Y-50005877D01*
X90981066Y-49950171D01*
X90950208Y-49901893D01*
X90911944Y-49861042D01*
X90866273Y-49827618D01*
X90813197Y-49801622D01*
X90752715Y-49783053D01*
X90684826Y-49771912D01*
X90635453Y-49768611D01*
X90609532Y-49768198D01*
X88357613Y-49768198D01*
X88306594Y-49769849D01*
X88236237Y-49778514D01*
X88173286Y-49794607D01*
X88117741Y-49818127D01*
X88069602Y-49849075D01*
X88028869Y-49887450D01*
X87995542Y-49933253D01*
X87969621Y-49986483D01*
X87951106Y-50047141D01*
X87939997Y-50115226D01*
X87936706Y-50164742D01*
X87936294Y-50190738D01*
X87936294Y-51386307D01*
X86950774Y-51386307D01*
X86950774Y-49909859D01*
X86952081Y-49819089D01*
X86956003Y-49731485D01*
X86962538Y-49647050D01*
X86971688Y-49565782D01*
X86983451Y-49487682D01*
X86997829Y-49412749D01*
X87014821Y-49340983D01*
X87034427Y-49272385D01*
X87056648Y-49206955D01*
X87081482Y-49144692D01*
X87108931Y-49085597D01*
X87138994Y-49029669D01*
X87171671Y-48976909D01*
X87206962Y-48927316D01*
X87244867Y-48880891D01*
X87285387Y-48837633D01*
X87328788Y-48797113D01*
X87375337Y-48759208D01*
X87425035Y-48723917D01*
X87477881Y-48691240D01*
X87533875Y-48661177D01*
X87593018Y-48633728D01*
X87655310Y-48608894D01*
X87720750Y-48586673D01*
X87789338Y-48567067D01*
X87861075Y-48550075D01*
X87935960Y-48535697D01*
X88013994Y-48523934D01*
X88095176Y-48514784D01*
X88179507Y-48508249D01*
X88266986Y-48504327D01*
X88357613Y-48503020D01*
X90609532Y-48503020D01*
X90700160Y-48504327D01*
G37*
G36*
X90890411Y-48035295D02*
G01*
X90890411Y-46768896D01*
X91945541Y-46768896D01*
X91945541Y-48035295D01*
X90890411Y-48035295D01*
G37*
G36*
X91874710Y-42908638D02*
G01*
X91883426Y-42990539D01*
X91891864Y-43071837D01*
X91900026Y-43152531D01*
X91907912Y-43232622D01*
X91915521Y-43312110D01*
X91922853Y-43390994D01*
X91929908Y-43469274D01*
X91936687Y-43546951D01*
X91943189Y-43624025D01*
X91949414Y-43700495D01*
X91955363Y-43776362D01*
X91961035Y-43851625D01*
X91966430Y-43926285D01*
X91971549Y-44000341D01*
X91976390Y-44073794D01*
X91980956Y-44146644D01*
X91985244Y-44218890D01*
X91989256Y-44290532D01*
X91992991Y-44361572D01*
X91996450Y-44432007D01*
X91999632Y-44501839D01*
X92002537Y-44571068D01*
X92005165Y-44639694D01*
X92007517Y-44707715D01*
X92009592Y-44775134D01*
X92011391Y-44841949D01*
X92012912Y-44908160D01*
X92014157Y-44973768D01*
X92015126Y-45038773D01*
X92015818Y-45103174D01*
X92016233Y-45166972D01*
X92016371Y-45230166D01*
X92015245Y-45289118D01*
X92011868Y-45346601D01*
X92006239Y-45402615D01*
X91998358Y-45457159D01*
X91988226Y-45510234D01*
X91975842Y-45561840D01*
X91961206Y-45611977D01*
X91944319Y-45660644D01*
X91925181Y-45707842D01*
X91903790Y-45753571D01*
X91880148Y-45797830D01*
X91854255Y-45840621D01*
X91826110Y-45881942D01*
X91795713Y-45921793D01*
X91763064Y-45960176D01*
X91728164Y-45997089D01*
X91691251Y-46031989D01*
X91652869Y-46064637D01*
X91613017Y-46095034D01*
X91571696Y-46123179D01*
X91528906Y-46149073D01*
X91484647Y-46172715D01*
X91438918Y-46194105D01*
X91391720Y-46213244D01*
X91343053Y-46230131D01*
X91292916Y-46244766D01*
X91241310Y-46257150D01*
X91188235Y-46267282D01*
X91133691Y-46275163D01*
X91077677Y-46280792D01*
X91020194Y-46284169D01*
X90961242Y-46285295D01*
X89343133Y-46285295D01*
X89278079Y-46284127D01*
X89214810Y-46280620D01*
X89153325Y-46274777D01*
X89093624Y-46266595D01*
X89035707Y-46256077D01*
X88979574Y-46243221D01*
X88925225Y-46228027D01*
X88872660Y-46210496D01*
X88821880Y-46190627D01*
X88772883Y-46168421D01*
X88725671Y-46143878D01*
X88680243Y-46116997D01*
X88636599Y-46087778D01*
X88594739Y-46056222D01*
X88554663Y-46022329D01*
X88516371Y-45986098D01*
X88480140Y-45947806D01*
X88446247Y-45907730D01*
X88414691Y-45865870D01*
X88385472Y-45822226D01*
X88358591Y-45776798D01*
X88334047Y-45729586D01*
X88311841Y-45680589D01*
X88291973Y-45629809D01*
X88274442Y-45577244D01*
X88259248Y-45522895D01*
X88246392Y-45466762D01*
X88235873Y-45408845D01*
X88227692Y-45349144D01*
X88221848Y-45287659D01*
X88218342Y-45224389D01*
X88217173Y-45159336D01*
X88217173Y-42908638D01*
X89167278Y-42908638D01*
X89167278Y-44772211D01*
X89169747Y-44822625D01*
X89180719Y-44882131D01*
X89200468Y-44932821D01*
X89228995Y-44974695D01*
X89266299Y-45007754D01*
X89312381Y-45031997D01*
X89367240Y-45047424D01*
X89430877Y-45054036D01*
X89448157Y-45054311D01*
X90819581Y-45054311D01*
X90870490Y-45049884D01*
X90922472Y-45034321D01*
X90968851Y-45007552D01*
X90996657Y-44983481D01*
X91030306Y-44940934D01*
X91052943Y-44892977D01*
X91064567Y-44839611D01*
X91066266Y-44807626D01*
X91065856Y-44726077D01*
X91064625Y-44639575D01*
X91062574Y-44548123D01*
X91059702Y-44451718D01*
X91057959Y-44401659D01*
X91056010Y-44350362D01*
X91053856Y-44297828D01*
X91051497Y-44244055D01*
X91048933Y-44189044D01*
X91046164Y-44132795D01*
X91043190Y-44075309D01*
X91040010Y-44016585D01*
X91036626Y-43956622D01*
X91033036Y-43895422D01*
X91029241Y-43832984D01*
X91025241Y-43769308D01*
X91021036Y-43704394D01*
X91016626Y-43638242D01*
X91012010Y-43570852D01*
X91007190Y-43502224D01*
X91002164Y-43432359D01*
X90996934Y-43361255D01*
X90991498Y-43288914D01*
X90985857Y-43215334D01*
X90980011Y-43140517D01*
X90973960Y-43064462D01*
X90967703Y-42987169D01*
X90961242Y-42908638D01*
X91874710Y-42908638D01*
G37*
G36*
X90955465Y-38568390D02*
G01*
X91018734Y-38571896D01*
X91080220Y-38577740D01*
X91139921Y-38585921D01*
X91197838Y-38596440D01*
X91253971Y-38609296D01*
X91308319Y-38624490D01*
X91360884Y-38642021D01*
X91411665Y-38661889D01*
X91460661Y-38684095D01*
X91507874Y-38708639D01*
X91553302Y-38735520D01*
X91596946Y-38764738D01*
X91638806Y-38796294D01*
X91678882Y-38830188D01*
X91717173Y-38866419D01*
X91753404Y-38904563D01*
X91787298Y-38944500D01*
X91818854Y-38986231D01*
X91848072Y-39029756D01*
X91874953Y-39075075D01*
X91899497Y-39122187D01*
X91921703Y-39171093D01*
X91941572Y-39221792D01*
X91959103Y-39274285D01*
X91974296Y-39328572D01*
X91987152Y-39384652D01*
X91997671Y-39442527D01*
X92005852Y-39502194D01*
X92011696Y-39563656D01*
X92015202Y-39626911D01*
X92016371Y-39691960D01*
X92016371Y-41310068D01*
X92015202Y-41375122D01*
X92011696Y-41438391D01*
X92005852Y-41499877D01*
X91997671Y-41559578D01*
X91987152Y-41617495D01*
X91974296Y-41673628D01*
X91959103Y-41727977D01*
X91941572Y-41780541D01*
X91921703Y-41831322D01*
X91899497Y-41880318D01*
X91874953Y-41927531D01*
X91848072Y-41972959D01*
X91818854Y-42016603D01*
X91787298Y-42058463D01*
X91753404Y-42098539D01*
X91717173Y-42136830D01*
X91678882Y-42173061D01*
X91638806Y-42206955D01*
X91596946Y-42238511D01*
X91553302Y-42267729D01*
X91507874Y-42294610D01*
X91460661Y-42319154D01*
X91411665Y-42341360D01*
X91360884Y-42361229D01*
X91308319Y-42378760D01*
X91253971Y-42393953D01*
X91197838Y-42406809D01*
X91139921Y-42417328D01*
X91080220Y-42425509D01*
X91018734Y-42431353D01*
X90955465Y-42434859D01*
X90890411Y-42436028D01*
X89272303Y-42436028D01*
X89207254Y-42434859D01*
X89143999Y-42431353D01*
X89082537Y-42425509D01*
X89022870Y-42417328D01*
X88964995Y-42406809D01*
X88908915Y-42393953D01*
X88854628Y-42378760D01*
X88802135Y-42361229D01*
X88751436Y-42341360D01*
X88702530Y-42319154D01*
X88655418Y-42294610D01*
X88610099Y-42267729D01*
X88566574Y-42238511D01*
X88524843Y-42206955D01*
X88484906Y-42173061D01*
X88446762Y-42136830D01*
X88410531Y-42098539D01*
X88376637Y-42058463D01*
X88345081Y-42016603D01*
X88315863Y-41972959D01*
X88288982Y-41927531D01*
X88264438Y-41880318D01*
X88242232Y-41831322D01*
X88222364Y-41780541D01*
X88204832Y-41727977D01*
X88189639Y-41673628D01*
X88176783Y-41617495D01*
X88166264Y-41559578D01*
X88158083Y-41499877D01*
X88152239Y-41438391D01*
X88148733Y-41375122D01*
X88147564Y-41310068D01*
X88147564Y-40922944D01*
X89096448Y-40922944D01*
X89098927Y-40973358D01*
X89109947Y-41032864D01*
X89129782Y-41083553D01*
X89158433Y-41125428D01*
X89195899Y-41158486D01*
X89242181Y-41182729D01*
X89297279Y-41198157D01*
X89361192Y-41204769D01*
X89378548Y-41205044D01*
X90785387Y-41205044D01*
X90835583Y-41202565D01*
X90894831Y-41191545D01*
X90945302Y-41171710D01*
X90986995Y-41143059D01*
X91019910Y-41105593D01*
X91044048Y-41059310D01*
X91059409Y-41004213D01*
X91065992Y-40940299D01*
X91066266Y-40922944D01*
X91066266Y-40079085D01*
X91063798Y-40028888D01*
X91052826Y-39969640D01*
X91033076Y-39919170D01*
X91004550Y-39877477D01*
X90967245Y-39844561D01*
X90921164Y-39820423D01*
X90866304Y-39805063D01*
X90802668Y-39798480D01*
X90785387Y-39798205D01*
X89378548Y-39798205D01*
X89328134Y-39800674D01*
X89268628Y-39811646D01*
X89217938Y-39831395D01*
X89176064Y-39859922D01*
X89143005Y-39897226D01*
X89118762Y-39943308D01*
X89103335Y-39998167D01*
X89096723Y-40061804D01*
X89096448Y-40079085D01*
X89096448Y-40922944D01*
X88147564Y-40922944D01*
X88147564Y-39691960D01*
X88148733Y-39626911D01*
X88152239Y-39563656D01*
X88158083Y-39502194D01*
X88166264Y-39442527D01*
X88176783Y-39384652D01*
X88189639Y-39328572D01*
X88204832Y-39274285D01*
X88222364Y-39221792D01*
X88242232Y-39171093D01*
X88264438Y-39122187D01*
X88288982Y-39075075D01*
X88315863Y-39029756D01*
X88345081Y-38986231D01*
X88376637Y-38944500D01*
X88410531Y-38904563D01*
X88446762Y-38866419D01*
X88484906Y-38830188D01*
X88524843Y-38796294D01*
X88566574Y-38764738D01*
X88610099Y-38735520D01*
X88655418Y-38708639D01*
X88702530Y-38684095D01*
X88751436Y-38661889D01*
X88802135Y-38642021D01*
X88854628Y-38624490D01*
X88908915Y-38609296D01*
X88964995Y-38596440D01*
X89022870Y-38585921D01*
X89082537Y-38577740D01*
X89143999Y-38571896D01*
X89207254Y-38568390D01*
X89272303Y-38567221D01*
X90890411Y-38567221D01*
X90955465Y-38568390D01*
G37*
G36*
X88147564Y-35461673D02*
G01*
X88149210Y-35391549D01*
X88154147Y-35323447D01*
X88162376Y-35257368D01*
X88173897Y-35193312D01*
X88188709Y-35131278D01*
X88206812Y-35071267D01*
X88228207Y-35013278D01*
X88252894Y-34957312D01*
X88280872Y-34903369D01*
X88312142Y-34851448D01*
X88346703Y-34801550D01*
X88384556Y-34753675D01*
X88425701Y-34707822D01*
X88470137Y-34663992D01*
X88517864Y-34622184D01*
X88568883Y-34582399D01*
X88529145Y-34521259D01*
X88491446Y-34459195D01*
X88455786Y-34396208D01*
X88422166Y-34332298D01*
X88390585Y-34267465D01*
X88361043Y-34201710D01*
X88333541Y-34135031D01*
X88308078Y-34067428D01*
X88284654Y-33998903D01*
X88263270Y-33929455D01*
X88250146Y-33882643D01*
X88231814Y-33812827D01*
X88215284Y-33744427D01*
X88200558Y-33677444D01*
X88187635Y-33611877D01*
X88176516Y-33547728D01*
X88167199Y-33484995D01*
X88159686Y-33423679D01*
X88153976Y-33363780D01*
X88150069Y-33305298D01*
X88147965Y-33248232D01*
X88147564Y-33210976D01*
X88147564Y-33140145D01*
X88148690Y-33081198D01*
X88152067Y-33023729D01*
X88157696Y-32967739D01*
X88165577Y-32913228D01*
X88175709Y-32860196D01*
X88188093Y-32808643D01*
X88202729Y-32758568D01*
X88219616Y-32709973D01*
X88238755Y-32662856D01*
X88260145Y-32617217D01*
X88283787Y-32573058D01*
X88309680Y-32530378D01*
X88337826Y-32489176D01*
X88368222Y-32449453D01*
X88400871Y-32411209D01*
X88435771Y-32374444D01*
X88472541Y-32339396D01*
X88510799Y-32306609D01*
X88550546Y-32276084D01*
X88591781Y-32247819D01*
X88634504Y-32221816D01*
X88678716Y-32198074D01*
X88724416Y-32176593D01*
X88771605Y-32157373D01*
X88820282Y-32140414D01*
X88870447Y-32125717D01*
X88922100Y-32113281D01*
X88975242Y-32103105D01*
X89029872Y-32095191D01*
X89085991Y-32089538D01*
X89143598Y-32086147D01*
X89202693Y-32085016D01*
X91945541Y-32085016D01*
X91945541Y-33316000D01*
X89412742Y-33316000D01*
X89362443Y-33320427D01*
X89311149Y-33335990D01*
X89265457Y-33362759D01*
X89238109Y-33386830D01*
X89203869Y-33429377D01*
X89180835Y-33477334D01*
X89169007Y-33530700D01*
X89167278Y-33562685D01*
X89167278Y-33598101D01*
X89168512Y-33658951D01*
X89172215Y-33722893D01*
X89178387Y-33789927D01*
X89187027Y-33860051D01*
X89194159Y-33908518D01*
X89202388Y-33958359D01*
X89211714Y-34009573D01*
X89222137Y-34062162D01*
X89233658Y-34116124D01*
X89246275Y-34171461D01*
X89259990Y-34228171D01*
X89274802Y-34286255D01*
X89290711Y-34345713D01*
X89307718Y-34406544D01*
X91945541Y-34406544D01*
X91945541Y-35637528D01*
X89412742Y-35637528D01*
X89362443Y-35641955D01*
X89311149Y-35657519D01*
X89265457Y-35684287D01*
X89238109Y-35708359D01*
X89203869Y-35750412D01*
X89180835Y-35798261D01*
X89169007Y-35851906D01*
X89167278Y-35884214D01*
X89167278Y-35919629D01*
X89168512Y-35980480D01*
X89172215Y-36044422D01*
X89178387Y-36111455D01*
X89187027Y-36181579D01*
X89194159Y-36230046D01*
X89202388Y-36279887D01*
X89211714Y-36331102D01*
X89222137Y-36383690D01*
X89233658Y-36437653D01*
X89246275Y-36492989D01*
X89259990Y-36549699D01*
X89274802Y-36607783D01*
X89290711Y-36667241D01*
X89307718Y-36728073D01*
X91945541Y-36728073D01*
X91945541Y-37959057D01*
X88217173Y-37959057D01*
X88217173Y-36868512D01*
X88568883Y-36798903D01*
X88542164Y-36757468D01*
X88516352Y-36715899D01*
X88479333Y-36653295D01*
X88444353Y-36590390D01*
X88411412Y-36527185D01*
X88380511Y-36463680D01*
X88351649Y-36399874D01*
X88324826Y-36335767D01*
X88300043Y-36271360D01*
X88277299Y-36206652D01*
X88256595Y-36141644D01*
X88250146Y-36119908D01*
X88231814Y-36055605D01*
X88215284Y-35993212D01*
X88200558Y-35932729D01*
X88187635Y-35874158D01*
X88176516Y-35817496D01*
X88167199Y-35762746D01*
X88159686Y-35709906D01*
X88153976Y-35658976D01*
X88150069Y-35609957D01*
X88147664Y-35547570D01*
X88147564Y-35532504D01*
X88147564Y-35461673D01*
G37*
G36*
X30426259Y-92021605D02*
G01*
X31691437Y-92021605D01*
X31691437Y-95609532D01*
X31690130Y-95700160D01*
X31686209Y-95787639D01*
X31679673Y-95871969D01*
X31670524Y-95953151D01*
X31658760Y-96031185D01*
X31644382Y-96106070D01*
X31627390Y-96177807D01*
X31607784Y-96246395D01*
X31585563Y-96311835D01*
X31560729Y-96374127D01*
X31533280Y-96433270D01*
X31503217Y-96489264D01*
X31470540Y-96542110D01*
X31435249Y-96591808D01*
X31397344Y-96638357D01*
X31356824Y-96681758D01*
X31313566Y-96722278D01*
X31267141Y-96760183D01*
X31217549Y-96795474D01*
X31164788Y-96828151D01*
X31108860Y-96858214D01*
X31049765Y-96885663D01*
X30987502Y-96910497D01*
X30922072Y-96932718D01*
X30853474Y-96952324D01*
X30781709Y-96969316D01*
X30706776Y-96983694D01*
X30628675Y-96995458D01*
X30547407Y-97004607D01*
X30462972Y-97011143D01*
X30375369Y-97015064D01*
X30284598Y-97016371D01*
X28667710Y-97016371D01*
X28576935Y-97015064D01*
X28489318Y-97011143D01*
X28404858Y-97004607D01*
X28323557Y-96995458D01*
X28245414Y-96983694D01*
X28170428Y-96969316D01*
X28098601Y-96952324D01*
X28029931Y-96932718D01*
X27964420Y-96910497D01*
X27902066Y-96885663D01*
X27842871Y-96858214D01*
X27786833Y-96828151D01*
X27733954Y-96795474D01*
X27684232Y-96760183D01*
X27637669Y-96722278D01*
X27594263Y-96681758D01*
X27553891Y-96638357D01*
X27516124Y-96591808D01*
X27480962Y-96542110D01*
X27448404Y-96489264D01*
X27418451Y-96433270D01*
X27391103Y-96374127D01*
X27366359Y-96311835D01*
X27344219Y-96246395D01*
X27324685Y-96177807D01*
X27307755Y-96106070D01*
X27293429Y-96031185D01*
X27281709Y-95953151D01*
X27272592Y-95871969D01*
X27266081Y-95787639D01*
X27262174Y-95700160D01*
X27260872Y-95609532D01*
X27260872Y-92021605D01*
X28526050Y-92021605D01*
X28526050Y-95609532D01*
X28527700Y-95660551D01*
X28536365Y-95730908D01*
X28552458Y-95793859D01*
X28575979Y-95849404D01*
X28606926Y-95897543D01*
X28645302Y-95938276D01*
X28691104Y-95971603D01*
X28744334Y-95997524D01*
X28804992Y-96016039D01*
X28873077Y-96027148D01*
X28922594Y-96030440D01*
X28948590Y-96030851D01*
X30003719Y-96030851D01*
X30054886Y-96029205D01*
X30125447Y-96020565D01*
X30188580Y-96004519D01*
X30244286Y-95981066D01*
X30292565Y-95950208D01*
X30333416Y-95911944D01*
X30366839Y-95866273D01*
X30392835Y-95813197D01*
X30411404Y-95752715D01*
X30422545Y-95684826D01*
X30425846Y-95635453D01*
X30426259Y-95609532D01*
X30426259Y-92021605D01*
G37*
G36*
X33983656Y-93357613D02*
G01*
X33983656Y-96945541D01*
X32752672Y-96945541D01*
X32752672Y-94307718D01*
X32225107Y-94307718D01*
X32225107Y-93357613D01*
X33983656Y-93357613D01*
G37*
G36*
X32752672Y-91950774D02*
G01*
X33983656Y-91950774D01*
X33983656Y-92936294D01*
X32752672Y-92936294D01*
X32752672Y-91950774D01*
G37*
G36*
X36748485Y-94167278D02*
G01*
X36677777Y-94168512D01*
X36605331Y-94172215D01*
X36556067Y-94176056D01*
X36506031Y-94180993D01*
X36455222Y-94187027D01*
X36403640Y-94194159D01*
X36351285Y-94202388D01*
X36298158Y-94211714D01*
X36244257Y-94222137D01*
X36189584Y-94233658D01*
X36134138Y-94246275D01*
X36077919Y-94259990D01*
X36020928Y-94274802D01*
X35963163Y-94290711D01*
X35904626Y-94307718D01*
X35904626Y-96945541D01*
X34673642Y-96945541D01*
X34673642Y-93217173D01*
X35764186Y-93217173D01*
X35833796Y-93568883D01*
X35875231Y-93542164D01*
X35916800Y-93516352D01*
X35979404Y-93479333D01*
X36042308Y-93444353D01*
X36105513Y-93411412D01*
X36169019Y-93380511D01*
X36232825Y-93351649D01*
X36296932Y-93324826D01*
X36361339Y-93300043D01*
X36426046Y-93277299D01*
X36491054Y-93256595D01*
X36512791Y-93250146D01*
X36577094Y-93231814D01*
X36639487Y-93215284D01*
X36699969Y-93200558D01*
X36758541Y-93187635D01*
X36815202Y-93176516D01*
X36869953Y-93167199D01*
X36922793Y-93159686D01*
X36973723Y-93153976D01*
X37022742Y-93150069D01*
X37085129Y-93147664D01*
X37100195Y-93147564D01*
X37416489Y-93147564D01*
X37475585Y-93148690D01*
X37533191Y-93152067D01*
X37589310Y-93157696D01*
X37643940Y-93165577D01*
X37697082Y-93175709D01*
X37748736Y-93188093D01*
X37798901Y-93202729D01*
X37847578Y-93219616D01*
X37894766Y-93238755D01*
X37940466Y-93260145D01*
X37984678Y-93283787D01*
X38027402Y-93309680D01*
X38068637Y-93337826D01*
X38108383Y-93368222D01*
X38146642Y-93400871D01*
X38183412Y-93435771D01*
X38218312Y-93472541D01*
X38250960Y-93510799D01*
X38281357Y-93550546D01*
X38309502Y-93591781D01*
X38335396Y-93634504D01*
X38359038Y-93678716D01*
X38380428Y-93724416D01*
X38399567Y-93771605D01*
X38416454Y-93820282D01*
X38431089Y-93870447D01*
X38443473Y-93922100D01*
X38453605Y-93975242D01*
X38461486Y-94029872D01*
X38467115Y-94085991D01*
X38470493Y-94143598D01*
X38471618Y-94202693D01*
X38471618Y-96945541D01*
X37240634Y-96945541D01*
X37240634Y-94412742D01*
X37236207Y-94362443D01*
X37220644Y-94311149D01*
X37193875Y-94265457D01*
X37169804Y-94238109D01*
X37127847Y-94203869D01*
X37080288Y-94180835D01*
X37027126Y-94169007D01*
X36995170Y-94167278D01*
X36748485Y-94167278D01*
G37*
G36*
X41470920Y-96945541D02*
G01*
X38939343Y-96945541D01*
X38939343Y-95961242D01*
X39571932Y-95961242D01*
X39571932Y-93005903D01*
X38939343Y-93005903D01*
X38939343Y-92021605D01*
X41470920Y-92021605D01*
X41470920Y-93005903D01*
X40838332Y-93005903D01*
X40838332Y-95961242D01*
X41470920Y-95961242D01*
X41470920Y-96945541D01*
G37*
G36*
X45200909Y-91952081D02*
G01*
X45288513Y-91956003D01*
X45372948Y-91962538D01*
X45454216Y-91971688D01*
X45532316Y-91983451D01*
X45607249Y-91997829D01*
X45679015Y-92014821D01*
X45747613Y-92034427D01*
X45813043Y-92056648D01*
X45875306Y-92081482D01*
X45934401Y-92108931D01*
X45990329Y-92138994D01*
X46043089Y-92171671D01*
X46092682Y-92206962D01*
X46139107Y-92244867D01*
X46182365Y-92285387D01*
X46222885Y-92328788D01*
X46260790Y-92375337D01*
X46296081Y-92425035D01*
X46328758Y-92477881D01*
X46358821Y-92533875D01*
X46386270Y-92593018D01*
X46411104Y-92655310D01*
X46433325Y-92720750D01*
X46452931Y-92789338D01*
X46469923Y-92861075D01*
X46484301Y-92935960D01*
X46496064Y-93013994D01*
X46505214Y-93095176D01*
X46511749Y-93179507D01*
X46515671Y-93266986D01*
X46516978Y-93357613D01*
X46516978Y-95609532D01*
X46515671Y-95700160D01*
X46511749Y-95787639D01*
X46505214Y-95871969D01*
X46496064Y-95953151D01*
X46484301Y-96031185D01*
X46469923Y-96106070D01*
X46452931Y-96177807D01*
X46433325Y-96246395D01*
X46411104Y-96311835D01*
X46386270Y-96374127D01*
X46358821Y-96433270D01*
X46328758Y-96489264D01*
X46296081Y-96542110D01*
X46260790Y-96591808D01*
X46222885Y-96638357D01*
X46182365Y-96681758D01*
X46139107Y-96722278D01*
X46092682Y-96760183D01*
X46043089Y-96795474D01*
X45990329Y-96828151D01*
X45934401Y-96858214D01*
X45875306Y-96885663D01*
X45813043Y-96910497D01*
X45747613Y-96932718D01*
X45679015Y-96952324D01*
X45607249Y-96969316D01*
X45532316Y-96983694D01*
X45454216Y-96995458D01*
X45372948Y-97004607D01*
X45288513Y-97011143D01*
X45200909Y-97015064D01*
X45110139Y-97016371D01*
X43351590Y-97016371D01*
X43260963Y-97015064D01*
X43173484Y-97011143D01*
X43089153Y-97004607D01*
X43007971Y-96995458D01*
X42929938Y-96983694D01*
X42855052Y-96969316D01*
X42783316Y-96952324D01*
X42714727Y-96932718D01*
X42649287Y-96910497D01*
X42586996Y-96885663D01*
X42527853Y-96858214D01*
X42471858Y-96828151D01*
X42419012Y-96795474D01*
X42369314Y-96760183D01*
X42322765Y-96722278D01*
X42279364Y-96681758D01*
X42238845Y-96638357D01*
X42200939Y-96591808D01*
X42165648Y-96542110D01*
X42132971Y-96489264D01*
X42102908Y-96433270D01*
X42075460Y-96374127D01*
X42050625Y-96311835D01*
X42028405Y-96246395D01*
X42008799Y-96177807D01*
X41991807Y-96106070D01*
X41977429Y-96031185D01*
X41965665Y-95953151D01*
X41956515Y-95871969D01*
X41949980Y-95787639D01*
X41946059Y-95700160D01*
X41944752Y-95609532D01*
X43211151Y-95609532D01*
X43212801Y-95660551D01*
X43221467Y-95730908D01*
X43237560Y-95793859D01*
X43261080Y-95849404D01*
X43292028Y-95897543D01*
X43330403Y-95938276D01*
X43376205Y-95971603D01*
X43429436Y-95997524D01*
X43490093Y-96016039D01*
X43558178Y-96027148D01*
X43607695Y-96030440D01*
X43633691Y-96030851D01*
X44829260Y-96030851D01*
X44880427Y-96029205D01*
X44950987Y-96020565D01*
X45014121Y-96004519D01*
X45069827Y-95981066D01*
X45118105Y-95950208D01*
X45158956Y-95911944D01*
X45192380Y-95866273D01*
X45218376Y-95813197D01*
X45236945Y-95752715D01*
X45248086Y-95684826D01*
X45251387Y-95635453D01*
X45251800Y-95609532D01*
X45251800Y-93357613D01*
X45250149Y-93306594D01*
X45241484Y-93236237D01*
X45225391Y-93173286D01*
X45201871Y-93117741D01*
X45170923Y-93069602D01*
X45132548Y-93028869D01*
X45086745Y-92995542D01*
X45033515Y-92969621D01*
X44972857Y-92951106D01*
X44904772Y-92939997D01*
X44855256Y-92936706D01*
X44829260Y-92936294D01*
X43633691Y-92936294D01*
X43582524Y-92937940D01*
X43511963Y-92946580D01*
X43448830Y-92962627D01*
X43393124Y-92986079D01*
X43344845Y-93016937D01*
X43303994Y-93055202D01*
X43270570Y-93100872D01*
X43244574Y-93153948D01*
X43226006Y-93214430D01*
X43214864Y-93282319D01*
X43211563Y-93331692D01*
X43211151Y-93357613D01*
X43211151Y-95609532D01*
X41944752Y-95609532D01*
X41944752Y-93357613D01*
X41946059Y-93266986D01*
X41949980Y-93179507D01*
X41956515Y-93095176D01*
X41965665Y-93013994D01*
X41977429Y-92935960D01*
X41991807Y-92861075D01*
X42008799Y-92789338D01*
X42028405Y-92720750D01*
X42050625Y-92655310D01*
X42075460Y-92593018D01*
X42102908Y-92533875D01*
X42132971Y-92477881D01*
X42165648Y-92425035D01*
X42200939Y-92375337D01*
X42238845Y-92328788D01*
X42279364Y-92285387D01*
X42322765Y-92244867D01*
X42369314Y-92206962D01*
X42419012Y-92171671D01*
X42471858Y-92138994D01*
X42527853Y-92108931D01*
X42586996Y-92081482D01*
X42649287Y-92056648D01*
X42714727Y-92034427D01*
X42783316Y-92014821D01*
X42855052Y-91997829D01*
X42929938Y-91983451D01*
X43007971Y-91971688D01*
X43089153Y-91962538D01*
X43173484Y-91956003D01*
X43260963Y-91952081D01*
X43351590Y-91950774D01*
X45110139Y-91950774D01*
X45200909Y-91952081D01*
G37*
G36*
X46984703Y-95890411D02*
G01*
X48251102Y-95890411D01*
X48251102Y-96945541D01*
X46984703Y-96945541D01*
X46984703Y-95890411D01*
G37*
G36*
X52111360Y-96874710D02*
G01*
X52029459Y-96883426D01*
X51948161Y-96891864D01*
X51867467Y-96900026D01*
X51787376Y-96907912D01*
X51707888Y-96915521D01*
X51629004Y-96922853D01*
X51550724Y-96929908D01*
X51473047Y-96936687D01*
X51395973Y-96943189D01*
X51319503Y-96949414D01*
X51243636Y-96955363D01*
X51168373Y-96961035D01*
X51093713Y-96966430D01*
X51019657Y-96971549D01*
X50946204Y-96976390D01*
X50873354Y-96980956D01*
X50801108Y-96985244D01*
X50729466Y-96989256D01*
X50658426Y-96992991D01*
X50587991Y-96996450D01*
X50518159Y-96999632D01*
X50448930Y-97002537D01*
X50380304Y-97005165D01*
X50312283Y-97007517D01*
X50244864Y-97009592D01*
X50178049Y-97011391D01*
X50111838Y-97012912D01*
X50046230Y-97014157D01*
X49981225Y-97015126D01*
X49916824Y-97015818D01*
X49853026Y-97016233D01*
X49789832Y-97016371D01*
X49730880Y-97015245D01*
X49673397Y-97011868D01*
X49617383Y-97006239D01*
X49562839Y-96998358D01*
X49509764Y-96988226D01*
X49458158Y-96975842D01*
X49408021Y-96961206D01*
X49359354Y-96944319D01*
X49312156Y-96925181D01*
X49266427Y-96903790D01*
X49222168Y-96880148D01*
X49179377Y-96854255D01*
X49138056Y-96826110D01*
X49098205Y-96795713D01*
X49059822Y-96763064D01*
X49022909Y-96728164D01*
X48988009Y-96691251D01*
X48955361Y-96652869D01*
X48924964Y-96613017D01*
X48896819Y-96571696D01*
X48870925Y-96528906D01*
X48847283Y-96484647D01*
X48825893Y-96438918D01*
X48806754Y-96391720D01*
X48789867Y-96343053D01*
X48775232Y-96292916D01*
X48762848Y-96241310D01*
X48752716Y-96188235D01*
X48744835Y-96133691D01*
X48739206Y-96077677D01*
X48735829Y-96020194D01*
X48734703Y-95961242D01*
X48734703Y-94343133D01*
X48735871Y-94278079D01*
X48739378Y-94214810D01*
X48745221Y-94153325D01*
X48753403Y-94093624D01*
X48763921Y-94035707D01*
X48776777Y-93979574D01*
X48791971Y-93925225D01*
X48809502Y-93872660D01*
X48829371Y-93821880D01*
X48851577Y-93772883D01*
X48876120Y-93725671D01*
X48903001Y-93680243D01*
X48932220Y-93636599D01*
X48963776Y-93594739D01*
X48997669Y-93554663D01*
X49033900Y-93516371D01*
X49072192Y-93480140D01*
X49112268Y-93446247D01*
X49154128Y-93414691D01*
X49197772Y-93385472D01*
X49243200Y-93358591D01*
X49290412Y-93334047D01*
X49339409Y-93311841D01*
X49390189Y-93291973D01*
X49442754Y-93274442D01*
X49497103Y-93259248D01*
X49553236Y-93246392D01*
X49611153Y-93235873D01*
X49670854Y-93227692D01*
X49732339Y-93221848D01*
X49795609Y-93218342D01*
X49860662Y-93217173D01*
X52111360Y-93217173D01*
X52111360Y-94167278D01*
X50247787Y-94167278D01*
X50197373Y-94169747D01*
X50137867Y-94180719D01*
X50087177Y-94200468D01*
X50045303Y-94228995D01*
X50012244Y-94266299D01*
X49988001Y-94312381D01*
X49972574Y-94367240D01*
X49965962Y-94430877D01*
X49965687Y-94448157D01*
X49965687Y-95819581D01*
X49970114Y-95870490D01*
X49985677Y-95922472D01*
X50012446Y-95968851D01*
X50036517Y-95996657D01*
X50079064Y-96030306D01*
X50127021Y-96052943D01*
X50180387Y-96064567D01*
X50212372Y-96066266D01*
X50293921Y-96065856D01*
X50380423Y-96064625D01*
X50471875Y-96062574D01*
X50568280Y-96059702D01*
X50618339Y-96057959D01*
X50669636Y-96056010D01*
X50722170Y-96053856D01*
X50775943Y-96051497D01*
X50830954Y-96048933D01*
X50887203Y-96046164D01*
X50944689Y-96043190D01*
X51003413Y-96040010D01*
X51063376Y-96036626D01*
X51124576Y-96033036D01*
X51187014Y-96029241D01*
X51250690Y-96025241D01*
X51315604Y-96021036D01*
X51381756Y-96016626D01*
X51449146Y-96012010D01*
X51517774Y-96007190D01*
X51587639Y-96002164D01*
X51658743Y-95996934D01*
X51731084Y-95991498D01*
X51804664Y-95985857D01*
X51879481Y-95980011D01*
X51955536Y-95973960D01*
X52032829Y-95967703D01*
X52111360Y-95961242D01*
X52111360Y-96874710D01*
G37*
G36*
X55393087Y-93148733D02*
G01*
X55456342Y-93152239D01*
X55517804Y-93158083D01*
X55577471Y-93166264D01*
X55635346Y-93176783D01*
X55691426Y-93189639D01*
X55745713Y-93204832D01*
X55798206Y-93222364D01*
X55848905Y-93242232D01*
X55897811Y-93264438D01*
X55944923Y-93288982D01*
X55990242Y-93315863D01*
X56033767Y-93345081D01*
X56075498Y-93376637D01*
X56115435Y-93410531D01*
X56153579Y-93446762D01*
X56189810Y-93484906D01*
X56223704Y-93524843D01*
X56255260Y-93566574D01*
X56284478Y-93610099D01*
X56311359Y-93655418D01*
X56335903Y-93702530D01*
X56358109Y-93751436D01*
X56377977Y-93802135D01*
X56395508Y-93854628D01*
X56410702Y-93908915D01*
X56423558Y-93964995D01*
X56434077Y-94022870D01*
X56442258Y-94082537D01*
X56448102Y-94143999D01*
X56451608Y-94207254D01*
X56452777Y-94272303D01*
X56452777Y-95890411D01*
X56451608Y-95955465D01*
X56448102Y-96018734D01*
X56442258Y-96080220D01*
X56434077Y-96139921D01*
X56423558Y-96197838D01*
X56410702Y-96253971D01*
X56395508Y-96308319D01*
X56377977Y-96360884D01*
X56358109Y-96411665D01*
X56335903Y-96460661D01*
X56311359Y-96507874D01*
X56284478Y-96553302D01*
X56255260Y-96596946D01*
X56223704Y-96638806D01*
X56189810Y-96678882D01*
X56153579Y-96717173D01*
X56115435Y-96753404D01*
X56075498Y-96787298D01*
X56033767Y-96818854D01*
X55990242Y-96848072D01*
X55944923Y-96874953D01*
X55897811Y-96899497D01*
X55848905Y-96921703D01*
X55798206Y-96941572D01*
X55745713Y-96959103D01*
X55691426Y-96974296D01*
X55635346Y-96987152D01*
X55577471Y-96997671D01*
X55517804Y-97005852D01*
X55456342Y-97011696D01*
X55393087Y-97015202D01*
X55328038Y-97016371D01*
X53709930Y-97016371D01*
X53644876Y-97015202D01*
X53581607Y-97011696D01*
X53520121Y-97005852D01*
X53460420Y-96997671D01*
X53402503Y-96987152D01*
X53346370Y-96974296D01*
X53292021Y-96959103D01*
X53239457Y-96941572D01*
X53188676Y-96921703D01*
X53139680Y-96899497D01*
X53092467Y-96874953D01*
X53047039Y-96848072D01*
X53003395Y-96818854D01*
X52961535Y-96787298D01*
X52921459Y-96753404D01*
X52883168Y-96717173D01*
X52846937Y-96678882D01*
X52813043Y-96638806D01*
X52781487Y-96596946D01*
X52752269Y-96553302D01*
X52725388Y-96507874D01*
X52700844Y-96460661D01*
X52678638Y-96411665D01*
X52658769Y-96360884D01*
X52641238Y-96308319D01*
X52626045Y-96253971D01*
X52613189Y-96197838D01*
X52602670Y-96139921D01*
X52594489Y-96080220D01*
X52588645Y-96018734D01*
X52585139Y-95955465D01*
X52583970Y-95890411D01*
X52583970Y-95785387D01*
X53814954Y-95785387D01*
X53817433Y-95835583D01*
X53828453Y-95894831D01*
X53848288Y-95945302D01*
X53876939Y-95986995D01*
X53914405Y-96019910D01*
X53960688Y-96044048D01*
X54015785Y-96059409D01*
X54079699Y-96065992D01*
X54097054Y-96066266D01*
X54940913Y-96066266D01*
X54991110Y-96063798D01*
X55050358Y-96052826D01*
X55100828Y-96033076D01*
X55142521Y-96004550D01*
X55175437Y-95967245D01*
X55199575Y-95921164D01*
X55214935Y-95866304D01*
X55221518Y-95802668D01*
X55221793Y-95785387D01*
X55221793Y-94378548D01*
X55219324Y-94328134D01*
X55208352Y-94268628D01*
X55188603Y-94217938D01*
X55160076Y-94176064D01*
X55122772Y-94143005D01*
X55076690Y-94118762D01*
X55021831Y-94103335D01*
X54958194Y-94096723D01*
X54940913Y-94096448D01*
X54097054Y-94096448D01*
X54046640Y-94098927D01*
X53987134Y-94109947D01*
X53936445Y-94129782D01*
X53894570Y-94158433D01*
X53861512Y-94195899D01*
X53837269Y-94242181D01*
X53821841Y-94297279D01*
X53815229Y-94361192D01*
X53814954Y-94378548D01*
X53814954Y-95785387D01*
X52583970Y-95785387D01*
X52583970Y-94272303D01*
X52585139Y-94207254D01*
X52588645Y-94143999D01*
X52594489Y-94082537D01*
X52602670Y-94022870D01*
X52613189Y-93964995D01*
X52626045Y-93908915D01*
X52641238Y-93854628D01*
X52658769Y-93802135D01*
X52678638Y-93751436D01*
X52700844Y-93702530D01*
X52725388Y-93655418D01*
X52752269Y-93610099D01*
X52781487Y-93566574D01*
X52813043Y-93524843D01*
X52846937Y-93484906D01*
X52883168Y-93446762D01*
X52921459Y-93410531D01*
X52961535Y-93376637D01*
X53003395Y-93345081D01*
X53047039Y-93315863D01*
X53092467Y-93288982D01*
X53139680Y-93264438D01*
X53188676Y-93242232D01*
X53239457Y-93222364D01*
X53292021Y-93204832D01*
X53346370Y-93189639D01*
X53402503Y-93176783D01*
X53460420Y-93166264D01*
X53520121Y-93158083D01*
X53581607Y-93152239D01*
X53644876Y-93148733D01*
X53709930Y-93147564D01*
X55328038Y-93147564D01*
X55393087Y-93148733D01*
G37*
G36*
X59558325Y-93147564D02*
G01*
X59628449Y-93149210D01*
X59696551Y-93154147D01*
X59762630Y-93162376D01*
X59826686Y-93173897D01*
X59888720Y-93188709D01*
X59948731Y-93206812D01*
X60006720Y-93228207D01*
X60062686Y-93252894D01*
X60116629Y-93280872D01*
X60168550Y-93312142D01*
X60218448Y-93346703D01*
X60266323Y-93384556D01*
X60312176Y-93425701D01*
X60356006Y-93470137D01*
X60397814Y-93517864D01*
X60437599Y-93568883D01*
X60498739Y-93529145D01*
X60560803Y-93491446D01*
X60623790Y-93455786D01*
X60687700Y-93422166D01*
X60752533Y-93390585D01*
X60818288Y-93361043D01*
X60884967Y-93333541D01*
X60952570Y-93308078D01*
X61021095Y-93284654D01*
X61090543Y-93263270D01*
X61137355Y-93250146D01*
X61207171Y-93231814D01*
X61275571Y-93215284D01*
X61342554Y-93200558D01*
X61408121Y-93187635D01*
X61472270Y-93176516D01*
X61535003Y-93167199D01*
X61596319Y-93159686D01*
X61656218Y-93153976D01*
X61714700Y-93150069D01*
X61771766Y-93147965D01*
X61809022Y-93147564D01*
X61879853Y-93147564D01*
X61938800Y-93148690D01*
X61996269Y-93152067D01*
X62052259Y-93157696D01*
X62106770Y-93165577D01*
X62159802Y-93175709D01*
X62211355Y-93188093D01*
X62261430Y-93202729D01*
X62310025Y-93219616D01*
X62357142Y-93238755D01*
X62402781Y-93260145D01*
X62446940Y-93283787D01*
X62489620Y-93309680D01*
X62530822Y-93337826D01*
X62570545Y-93368222D01*
X62608789Y-93400871D01*
X62645554Y-93435771D01*
X62680602Y-93472541D01*
X62713389Y-93510799D01*
X62743914Y-93550546D01*
X62772179Y-93591781D01*
X62798182Y-93634504D01*
X62821924Y-93678716D01*
X62843405Y-93724416D01*
X62862625Y-93771605D01*
X62879584Y-93820282D01*
X62894281Y-93870447D01*
X62906717Y-93922100D01*
X62916893Y-93975242D01*
X62924807Y-94029872D01*
X62930460Y-94085991D01*
X62933851Y-94143598D01*
X62934982Y-94202693D01*
X62934982Y-96945541D01*
X61703998Y-96945541D01*
X61703998Y-94412742D01*
X61699571Y-94362443D01*
X61684008Y-94311149D01*
X61657239Y-94265457D01*
X61633168Y-94238109D01*
X61590621Y-94203869D01*
X61542664Y-94180835D01*
X61489298Y-94169007D01*
X61457313Y-94167278D01*
X61421897Y-94167278D01*
X61361047Y-94168512D01*
X61297105Y-94172215D01*
X61230071Y-94178387D01*
X61159947Y-94187027D01*
X61111480Y-94194159D01*
X61061639Y-94202388D01*
X61010425Y-94211714D01*
X60957836Y-94222137D01*
X60903874Y-94233658D01*
X60848537Y-94246275D01*
X60791827Y-94259990D01*
X60733743Y-94274802D01*
X60674285Y-94290711D01*
X60613454Y-94307718D01*
X60613454Y-96945541D01*
X59382470Y-96945541D01*
X59382470Y-94412742D01*
X59378043Y-94362443D01*
X59362479Y-94311149D01*
X59335711Y-94265457D01*
X59311639Y-94238109D01*
X59269586Y-94203869D01*
X59221737Y-94180835D01*
X59168092Y-94169007D01*
X59135784Y-94167278D01*
X59100369Y-94167278D01*
X59039518Y-94168512D01*
X58975576Y-94172215D01*
X58908543Y-94178387D01*
X58838419Y-94187027D01*
X58789952Y-94194159D01*
X58740111Y-94202388D01*
X58688896Y-94211714D01*
X58636308Y-94222137D01*
X58582345Y-94233658D01*
X58527009Y-94246275D01*
X58470299Y-94259990D01*
X58412215Y-94274802D01*
X58352757Y-94290711D01*
X58291925Y-94307718D01*
X58291925Y-96945541D01*
X57060941Y-96945541D01*
X57060941Y-93217173D01*
X58151486Y-93217173D01*
X58221095Y-93568883D01*
X58262530Y-93542164D01*
X58304099Y-93516352D01*
X58366703Y-93479333D01*
X58429608Y-93444353D01*
X58492813Y-93411412D01*
X58556318Y-93380511D01*
X58620124Y-93351649D01*
X58684231Y-93324826D01*
X58748638Y-93300043D01*
X58813346Y-93277299D01*
X58878354Y-93256595D01*
X58900090Y-93250146D01*
X58964393Y-93231814D01*
X59026786Y-93215284D01*
X59087269Y-93200558D01*
X59145840Y-93187635D01*
X59202502Y-93176516D01*
X59257252Y-93167199D01*
X59310092Y-93159686D01*
X59361022Y-93153976D01*
X59410041Y-93150069D01*
X59472428Y-93147664D01*
X59487494Y-93147564D01*
X59558325Y-93147564D01*
G37*
%LPC*%
%LPD*%
M02*
